<svg version="1.2" xmlns="http://www.w3.org/2000/svg" viewBox="0 0 1920 1080" width="1920" height="1080">
	<title>map-svg</title>
	<style>
		.s0 { fill: none;stroke: #101010;stroke-width: 2.7 } 
		.s1 { paint-order:stroke fill markers;stroke: #383838;stroke-width: 4;stroke-linejoin: round;;fill: #000000 } 
		.s2 { fill: none;stroke: #101010;stroke-width: 3 } 
	</style>
	<g id="layer2">
		<path id="path2" fill-rule="evenodd" class="s0" d="m1005.1 790c3.5 149.9 171.5 128.5 171.5 128.5"/>
		<g id="text6">
			<path id="ð„ð§ ðžð¥ ðœðžð§ð­ð«ð¨ ð¬ð®ð« ðžð¬ð­ðž ð² ðœðžð§ð­ð«ð¨ ð¬ð®ð« ð¨ðžð¬ð­ðž ð¬ðž ðœð¨ð§ðœðžð§ð­ð«ðšð§ ð¥ðš ð¦ðšð²ð¨ð« " class="s1" aria-label="En el centro sur este y centro sur oeste se concentran la mayor "  d="m1142.3 906.9q0 0.2 0 0.4 0 0.2-0.1 0.4 0 0.1-0.1 0.2-0.1 0-0.1 0l-6.9 0.1q-0.2 0-0.4-0.3-0.3-0.2-0.3-1l-1-23.1q0-0.7 0.2-1 0.2-0.2 0.4-0.2l6.7-0.1q0.1 0 0.2 0.1 0.1 0 0.1 0.2 0.1 0.1 0.1 0.3 0 0.2 0 0.5 0 0.3 0 0.5 0 0.2 0 0.3-0.1 0.1-0.1 0.2-0.1 0.1-0.2 0.1h-6l0.4 9h5.2q0.1 0 0.2 0.1 0 0 0.1 0.2 0 0.1 0.1 0.3 0 0.2 0 0.5 0 0.2 0 0.4 0 0.2 0 0.3-0.1 0.1-0.2 0.2 0 0.1-0.1 0.1h-5.2l0.5 10.2h6.1q0 0 0.1 0.1 0.1 0 0.1 0.1 0.1 0.2 0.1 0.4 0.1 0.2 0.1 0.5zm14-10.3l0.4 10.8q0.1 0.1 0 0.2 0 0.1-0.1 0.2 0 0.1-0.2 0.1-0.1 0-0.3 0-0.2 0-0.3 0-0.2 0-0.2-0.1-0.1-0.1-0.2-0.2 0-0.1 0-0.2l-0.5-10.6q0-1.7-0.2-2.7-0.2-1-0.6-1.8-0.3-0.7-0.8-1.1-0.4-0.4-1-0.4-0.8 0-1.6 1-0.7 0.9-1.5 2.8l0.6 12.9q0 0.1 0 0.2-0.1 0.1-0.1 0.1-0.1 0.1-0.2 0.1-0.2 0.1-0.4 0.1-0.2 0-0.3 0-0.1-0.1-0.2-0.1-0.1-0.1-0.1-0.2-0.1-0.1-0.1-0.2l-0.8-17.9q0-0.2 0.1-0.3 0-0.1 0.1-0.1 0-0.1 0.2-0.1 0.1-0.1 0.3-0.1 0.2 0 0.3 0.1 0.1 0 0.2 0.1 0.1 0 0.1 0.1 0 0.1 0 0.3l0.1 2.5q0.8-1.7 1.7-2.5 0.8-0.8 1.6-0.8 1 0 1.7 0.6 0.8 0.6 1.2 1.6 0.5 1 0.7 2.3 0.3 1.4 0.4 3.3zm23.1 0.3v0.4q0.1 0.8-0.1 1-0.2 0.3-0.4 0.3l-7 0.1q0.1 1.6 0.3 3 0.2 1.3 0.7 2.3 0.5 0.9 1.2 1.4 0.7 0.5 1.7 0.5 0.7 0 1.3-0.2 0.6-0.2 0.9-0.5 0.5-0.3 0.7-0.5 0.3-0.2 0.4-0.2 0 0 0.1 0.1 0.1 0 0.1 0.2 0 0.1 0.1 0.3 0 0.2 0 0.5 0 0.1 0 0.2 0 0.2 0 0.3 0 0.1 0 0.2-0.1 0.1-0.1 0.2-0.1 0.1-0.4 0.3-0.2 0.3-0.7 0.5-0.5 0.3-1.1 0.5-0.6 0.2-1.3 0.2-1.2 0-2.2-0.6-0.9-0.6-1.6-1.8-0.7-1.3-1.1-3.1-0.4-1.8-0.5-4.1-0.1-2.3 0.2-4.1 0.2-1.8 0.8-3.1 0.6-1.2 1.4-1.9 0.9-0.7 1.9-0.7 1.2 0 2 0.7 0.9 0.6 1.5 1.8 0.5 1.1 0.8 2.6 0.4 1.5 0.4 3.2zm-7.6-0.2h6.2q-0.1-2.9-0.9-4.5-0.9-1.6-2.4-1.6-0.7 0-1.3 0.6-0.6 0.5-0.9 1.3-0.4 0.8-0.6 1.9-0.1 1.1-0.1 2.3zm14.3-16.2l1.1 26.7q0 0.1 0 0.2 0 0.1-0.1 0.1-0.1 0.1-0.2 0.1-0.1 0.1-0.3 0.1-0.2 0-0.4 0-0.1-0.1-0.2-0.1 0-0.1-0.1-0.2 0-0.1 0-0.2l-1.2-26.7q0-0.1 0-0.2 0.1-0.1 0.1-0.2 0.1-0.1 0.2-0.1 0.2 0 0.4 0 0.2 0 0.3 0 0.1 0 0.2 0.1 0.1 0.1 0.1 0.2 0.1 0.1 0.1 0.2zm23 23.8q0 0.3 0 0.5 0 0.2 0 0.3 0 0.1-0.1 0.3 0 0.1-0.2 0.3-0.1 0.3-0.4 0.7-0.3 0.4-0.8 0.7-0.4 0.3-0.9 0.5-0.5 0.2-1 0.2-1.1 0-1.9-0.6-0.9-0.7-1.5-1.9-0.6-1.2-0.9-3-0.4-1.7-0.5-4.1-0.1-2.6 0.2-4.4 0.2-1.9 0.8-3.1 0.6-1.2 1.4-1.7 0.8-0.6 1.7-0.6 0.5 0 1 0.1 0.5 0.2 0.9 0.5 0.4 0.2 0.7 0.6 0.3 0.3 0.5 0.6 0.1 0.2 0.2 0.4 0.1 0.1 0.1 0.3 0 0.1 0 0.3 0.1 0.2 0.1 0.4 0 0.6-0.1 0.9-0.1 0.2-0.2 0.2-0.1 0-0.4-0.4-0.2-0.3-0.6-0.7-0.4-0.5-0.9-0.8-0.6-0.4-1.3-0.4-1.4 0-2.2 2-0.7 2-0.5 5.8 0.1 1.8 0.4 3.3 0.2 1.4 0.7 2.3 0.4 0.9 1 1.4 0.6 0.5 1.3 0.5 0.7-0.1 1.2-0.4 0.5-0.4 0.9-0.9 0.4-0.4 0.6-0.8 0.2-0.4 0.4-0.4 0 0 0.1 0.1 0 0.1 0.1 0.2 0 0.1 0 0.4 0.1 0.2 0.1 0.4zm13.6-7.8v0.5q0.1 0.7-0.1 1-0.2 0.3-0.5 0.3h-6.9q0 1.7 0.3 3 0.2 1.4 0.7 2.3 0.5 1 1.2 1.5 0.7 0.5 1.7 0.5 0.7 0 1.3-0.2 0.5-0.3 0.9-0.5 0.4-0.3 0.7-0.5 0.2-0.2 0.4-0.2 0 0 0.1 0 0 0.1 0.1 0.2 0 0.1 0 0.3 0.1 0.2 0.1 0.5 0 0.2 0 0.3 0 0.1 0 0.2 0 0.1-0.1 0.2 0 0.1 0 0.2-0.1 0.1-0.4 0.4-0.3 0.2-0.7 0.5-0.5 0.2-1.1 0.4-0.6 0.2-1.4 0.2-1.2 0.1-2.1-0.5-0.9-0.7-1.6-1.9-0.7-1.2-1.1-3-0.4-1.8-0.5-4.2-0.1-2.3 0.1-4.1 0.3-1.8 0.9-3 0.5-1.3 1.4-1.9 0.8-0.7 1.9-0.7 1.2 0 2 0.6 0.9 0.7 1.4 1.8 0.6 1.2 0.9 2.7 0.3 1.5 0.4 3.1zm-7.6-0.1l6.2-0.1q-0.1-2.8-0.9-4.4-0.9-1.6-2.4-1.6-0.8 0-1.3 0.5-0.6 0.5-0.9 1.3-0.4 0.9-0.6 2-0.1 1.1-0.1 2.3zm21.9-0.5l0.5 10.9q0 0.1 0 0.2-0.1 0.1-0.2 0.1 0 0.1-0.2 0.1-0.1 0.1-0.3 0.1-0.2 0-0.3-0.1-0.1 0-0.2 0-0.1-0.1-0.1-0.2-0.1-0.1-0.1-0.2l-0.4-10.7q-0.1-1.6-0.3-2.6-0.2-1.1-0.5-1.8-0.4-0.8-0.8-1.2-0.5-0.4-1.1-0.4-0.8 0-1.5 1-0.8 1-1.6 2.9l0.6 12.8q0 0.1 0 0.2 0 0.1-0.1 0.2-0.1 0.1-0.2 0.1-0.1 0-0.3 0-0.2 0-0.4 0-0.1 0-0.2-0.1-0.1-0.1-0.1-0.1 0-0.1 0-0.3l-0.8-17.9q0-0.1 0-0.2 0-0.1 0.1-0.2 0.1 0 0.2-0.1 0.1 0 0.3 0 0.2 0 0.3 0 0.1 0 0.2 0.1 0.1 0.1 0.1 0.2 0 0.1 0.1 0.2l0.1 2.5q0.8-1.7 1.6-2.5 0.8-0.8 1.6-0.8 1.1 0 1.8 0.6 0.7 0.6 1.1 1.6 0.5 1 0.8 2.4 0.2 1.3 0.3 3.2zm11.8 9.7q0 0.4 0 0.7-0.1 0.2-0.1 0.4-0.1 0.1-0.3 0.3-0.1 0.1-0.3 0.2-0.3 0.1-0.5 0.1-0.2 0.1-0.5 0.1-0.7 0-1.3-0.4-0.5-0.3-0.9-1-0.4-0.8-0.6-1.9-0.2-1.1-0.2-2.6l-0.5-11.1h-1.5q-0.2 0-0.3-0.2-0.1-0.3-0.1-0.8 0-0.3 0-0.4 0-0.2 0-0.4 0.1-0.1 0.1-0.2 0.1 0 0.2 0h1.5l-0.2-4.4q0-0.1 0-0.2 0-0.1 0.1-0.2 0.1-0.1 0.2-0.1 0.2 0 0.3 0 0.3 0 0.4 0 0.1 0 0.2 0.1 0.1 0.1 0.1 0.2 0 0.1 0.1 0.2l0.1 4.4 2.9-0.1q0.1 0 0.1 0.1 0.1 0.1 0.1 0.2 0.1 0.1 0.1 0.3 0 0.2 0.1 0.4 0 0.5-0.1 0.8-0.1 0.2-0.2 0.2l-2.9 0.1 0.5 10.8q0.1 2 0.5 3.1 0.4 1.1 1.2 1.1 0.3 0 0.5-0.1 0.2-0.1 0.4-0.3 0.2-0.1 0.3-0.2 0.1-0.1 0.2-0.1 0.1 0 0.1 0.1 0 0 0.1 0.1 0 0.1 0 0.3 0.1 0.1 0.1 0.4zm10.5-16q0.1 0.3 0.1 0.5 0 0.2-0.1 0.3 0 0.1 0 0.2-0.1 0.1-0.1 0.1-0.1 0-0.3-0.1-0.1-0.1-0.3-0.2-0.2-0.1-0.4-0.2-0.2-0.1-0.5-0.1-0.3 0-0.6 0.3-0.3 0.2-0.6 0.7-0.3 0.5-0.6 1.4-0.3 0.8-0.7 2l0.6 12.1q0 0.1-0.1 0.2 0 0.1-0.1 0.2 0 0.1-0.2 0.1-0.1 0-0.3 0-0.2 0-0.3 0-0.2 0-0.2-0.1-0.1-0.1-0.2-0.2 0-0.1 0-0.2l-0.8-17.9q0-0.1 0-0.2 0.1-0.1 0.1-0.2 0.1 0 0.2-0.1 0.1 0 0.3 0 0.2 0 0.4 0 0.1 0 0.2 0.1 0 0.1 0.1 0.2 0 0.1 0 0.2l0.1 2.8q0.4-1.1 0.8-1.8 0.3-0.7 0.6-1.1 0.3-0.4 0.7-0.5 0.3-0.2 0.6-0.2 0.2 0 0.4 0.1 0.2 0 0.4 0.1 0.2 0.1 0.4 0.2 0.2 0.1 0.2 0.2 0.1 0 0.1 0.1 0.1 0.1 0.1 0.2 0 0.1 0 0.3 0 0.2 0 0.5zm14.2 7.7q0.1 2.2-0.1 4-0.3 1.8-0.8 3.1-0.6 1.3-1.5 2.1-0.9 0.7-2.2 0.7-1.2 0.1-2.1-0.6-0.9-0.7-1.6-1.9-0.6-1.2-1-3-0.4-1.7-0.5-4-0.1-2.1 0.1-3.9 0.3-1.8 0.8-3.1 0.6-1.4 1.5-2.1 0.9-0.7 2.2-0.7 1.2-0.1 2.1 0.6 0.9 0.6 1.6 1.9 0.7 1.2 1 3 0.4 1.7 0.5 3.9zm-1.4 0.3q-0.1-1.6-0.3-3-0.2-1.3-0.7-2.4-0.4-1.1-1.1-1.7-0.7-0.6-1.7-0.6-0.9 0-1.6 0.6-0.6 0.6-1 1.6-0.4 1-0.5 2.4-0.2 1.4-0.1 3 0.1 1.6 0.3 3 0.2 1.3 0.7 2.4 0.4 1 1.1 1.6 0.7 0.7 1.7 0.6 0.9 0 1.6-0.5 0.6-0.6 1-1.6 0.4-1 0.5-2.4 0.2-1.4 0.1-3zm21.7 3.9q0.1 1.3-0.2 2.4-0.2 1-0.7 1.7-0.4 0.7-1.1 1.1-0.7 0.4-1.6 0.4-0.5 0-1-0.2-0.5-0.1-0.9-0.3-0.4-0.3-0.6-0.5-0.3-0.3-0.4-0.5-0.2-0.2-0.2-0.5-0.1-0.3-0.1-0.8 0-0.2 0-0.4 0-0.2 0-0.3 0-0.2 0.1-0.2 0-0.1 0.1-0.1 0.1 0 0.4 0.3 0.2 0.2 0.6 0.6 0.4 0.3 0.9 0.5 0.5 0.3 1.1 0.3 0.6 0 1-0.2 0.4-0.2 0.7-0.6 0.3-0.4 0.4-1 0.2-0.6 0.2-1.5-0.1-0.8-0.3-1.4-0.3-0.5-0.7-1-0.4-0.4-0.8-0.7-0.5-0.3-1-0.7-0.5-0.3-1-0.7-0.5-0.4-0.9-1-0.4-0.6-0.7-1.5-0.2-0.8-0.3-2 0-0.9 0.1-1.8 0.2-0.9 0.6-1.6 0.4-0.7 1-1.2 0.7-0.4 1.6-0.4 0.4 0 0.7 0.1 0.4 0.1 0.7 0.3 0.4 0.1 0.6 0.4 0.2 0.2 0.4 0.3 0.1 0.2 0.1 0.3 0.1 0.1 0.1 0.2 0 0.1 0 0.3 0.1 0.2 0.1 0.4 0 0.2 0 0.4 0 0.2-0.1 0.4 0 0.1 0 0.2-0.1 0-0.1 0-0.1 0-0.3-0.2-0.2-0.2-0.5-0.5-0.3-0.2-0.7-0.4-0.5-0.2-1-0.2-0.5 0-0.9 0.2-0.4 0.2-0.7 0.6-0.2 0.4-0.3 0.9-0.1 0.6-0.1 1.2 0.1 0.9 0.3 1.5 0.3 0.6 0.6 1 0.4 0.4 0.9 0.8 0.5 0.3 1 0.6 0.5 0.4 1 0.8 0.5 0.4 0.9 0.9 0.4 0.6 0.7 1.4 0.2 0.8 0.3 1.9zm13.5-13.2l0.8 17.9q0 0.1 0 0.2 0 0.1-0.1 0.2-0.1 0-0.2 0.1-0.1 0-0.3 0-0.2 0-0.3 0-0.2-0.1-0.2-0.1-0.1-0.1-0.1-0.2-0.1-0.1-0.1-0.2l-0.1-2.5q-0.8 1.7-1.6 2.5-0.8 0.8-1.7 0.8-1 0-1.7-0.6-0.7-0.6-1.2-1.6-0.4-1-0.7-2.4-0.2-1.3-0.3-3.2l-0.5-10.9q0-0.1 0-0.2 0.1-0.1 0.1-0.1 0.1-0.1 0.2-0.1 0.2-0.1 0.4-0.1 0.2 0 0.3 0.1 0.1 0 0.2 0.1 0.1 0 0.1 0.1 0.1 0.1 0.1 0.2l0.4 10.6q0.1 1.7 0.3 2.8 0.2 1 0.5 1.8 0.3 0.7 0.8 1.1 0.5 0.4 1.1 0.4 0.8 0 1.5-1 0.8-1 1.5-2.9l-0.5-12.8q0-0.1 0-0.2 0-0.1 0.1-0.2 0.1-0.1 0.2-0.1 0.1 0 0.3 0 0.2 0 0.4 0 0.1 0 0.2 0.1 0 0.1 0.1 0.2 0 0.1 0 0.2zm12.4 0.8q0 0.3 0 0.5 0 0.2 0 0.3 0 0.2 0 0.2-0.1 0.1-0.1 0.1-0.1 0-0.3-0.1-0.1-0.1-0.3-0.2-0.2-0.1-0.4-0.1-0.2-0.1-0.5-0.1-0.3 0-0.6 0.2-0.3 0.2-0.6 0.7-0.3 0.5-0.6 1.4-0.3 0.8-0.7 2l0.5 12.1q0 0.2 0 0.3 0 0.1-0.1 0.1-0.1 0.1-0.2 0.1-0.1 0.1-0.3 0.1-0.2 0-0.3-0.1-0.2 0-0.3-0.1 0 0-0.1-0.1 0-0.1 0-0.3l-0.8-17.9q0-0.1 0-0.2 0.1-0.1 0.1-0.2 0.1 0 0.2-0.1 0.1 0 0.3 0 0.2 0 0.3 0 0.2 0.1 0.2 0.1 0.1 0.1 0.1 0.2 0.1 0.1 0.1 0.2l0.1 2.8q0.4-1.1 0.7-1.8 0.4-0.7 0.7-1.1 0.3-0.4 0.6-0.5 0.4-0.1 0.7-0.1 0.2 0 0.4 0 0.1 0 0.4 0.1 0.2 0.1 0.4 0.2 0.2 0.1 0.2 0.2 0.1 0.1 0.1 0.1 0 0.1 0.1 0.2 0 0.1 0 0.3 0 0.2 0 0.5zm22 6.5l0.1 0.4q0 0.8-0.2 1-0.2 0.3-0.4 0.3l-7 0.1q0.1 1.6 0.3 3 0.3 1.3 0.7 2.3 0.5 0.9 1.2 1.4 0.7 0.5 1.7 0.5 0.7 0 1.3-0.2 0.6-0.2 1-0.5 0.4-0.3 0.6-0.5 0.3-0.2 0.4-0.2 0.1 0 0.1 0.1 0.1 0 0.1 0.2 0.1 0.1 0.1 0.3 0 0.2 0 0.5 0 0.1 0 0.2 0 0.2 0 0.3 0 0.1 0 0.2-0.1 0.1-0.1 0.2-0.1 0.1-0.4 0.3-0.2 0.3-0.7 0.5-0.5 0.3-1.1 0.5-0.6 0.2-1.3 0.2-1.2 0-2.2-0.6-0.9-0.6-1.6-1.8-0.7-1.3-1.1-3.1-0.4-1.8-0.5-4.1-0.1-2.3 0.2-4.1 0.2-1.8 0.8-3.1 0.6-1.2 1.4-1.9 0.9-0.7 1.9-0.7 1.2 0 2 0.7 0.9 0.6 1.5 1.8 0.5 1.1 0.8 2.6 0.4 1.5 0.4 3.2zm-7.6-0.2h6.2q-0.1-2.9-0.9-4.5-0.9-1.6-2.4-1.6-0.7 0-1.3 0.6-0.6 0.5-0.9 1.3-0.4 0.8-0.5 1.9-0.2 1.1-0.2 2.3zm19.9 5.7q0.1 1.2-0.2 2.3-0.2 1-0.7 1.7-0.4 0.7-1.1 1.1-0.7 0.4-1.6 0.4-0.5 0-1-0.1-0.5-0.2-0.8-0.4-0.4-0.2-0.7-0.5-0.3-0.3-0.4-0.5-0.2-0.1-0.2-0.4-0.1-0.3-0.1-0.8 0-0.3 0-0.5 0-0.2 0-0.3 0-0.2 0.1-0.2 0.1-0.1 0.1-0.1 0.1 0 0.4 0.3 0.2 0.2 0.6 0.6 0.4 0.3 0.9 0.6 0.5 0.2 1.1 0.2 0.6 0 1-0.2 0.4-0.2 0.7-0.6 0.3-0.4 0.4-1 0.2-0.6 0.2-1.5-0.1-0.8-0.3-1.4-0.3-0.5-0.7-0.9-0.3-0.5-0.8-0.8-0.5-0.3-1-0.7-0.5-0.3-1-0.7-0.5-0.4-0.9-1-0.4-0.6-0.7-1.4-0.2-0.9-0.3-2 0-1 0.1-1.9 0.2-0.9 0.6-1.6 0.4-0.7 1-1.2 0.7-0.4 1.6-0.4 0.4 0 0.8 0.1 0.3 0.1 0.7 0.3 0.3 0.2 0.5 0.4 0.3 0.2 0.4 0.3 0.1 0.2 0.1 0.3 0.1 0.1 0.1 0.2 0 0.1 0.1 0.3 0 0.2 0 0.4 0 0.3 0 0.5 0 0.1 0 0.3-0.1 0.1-0.1 0.2-0.1 0-0.1 0-0.1 0-0.3-0.2-0.2-0.2-0.5-0.4-0.3-0.3-0.7-0.5-0.5-0.2-1-0.2-0.5 0-0.9 0.2-0.4 0.2-0.6 0.6-0.3 0.4-0.4 1-0.1 0.5-0.1 1.1 0.1 0.9 0.3 1.5 0.3 0.6 0.7 1 0.4 0.4 0.8 0.8 0.5 0.3 1 0.6 0.5 0.4 1 0.8 0.5 0.4 0.9 1 0.4 0.5 0.7 1.3 0.3 0.8 0.3 2zm10.7 3.6q0 0.4 0 0.6-0.1 0.3-0.2 0.5 0 0.1-0.2 0.2-0.1 0.2-0.4 0.3-0.2 0-0.4 0.1-0.2 0-0.5 0-0.7 0.1-1.3-0.3-0.5-0.3-0.9-1.1-0.4-0.7-0.6-1.8-0.2-1.1-0.2-2.6l-0.5-11.2-1.6 0.1q-0.1 0-0.2-0.3-0.1-0.2-0.1-0.7 0-0.3 0-0.5 0-0.2 0-0.3 0.1-0.1 0.1-0.2 0.1 0 0.2 0l1.5-0.1-0.2-4.4q0-0.1 0-0.2 0-0.1 0.1-0.1 0.1-0.1 0.2-0.1 0.1-0.1 0.3-0.1 0.2 0 0.4 0.1 0.1 0 0.2 0.1 0.1 0 0.1 0.1 0 0.1 0 0.2l0.2 4.4h2.9q0 0 0.1 0.1 0.1 0 0.1 0.2 0.1 0.1 0.1 0.3 0 0.2 0.1 0.4 0 0.5-0.1 0.8-0.1 0.2-0.2 0.2h-2.9l0.5 10.9q0.1 2 0.5 3.1 0.4 1 1.2 1 0.3 0 0.5-0.1 0.2-0.1 0.4-0.2 0.2-0.1 0.3-0.2 0.1-0.1 0.2-0.1 0 0 0.1 0 0 0.1 0.1 0.2 0 0.1 0 0.3 0.1 0.1 0.1 0.4zm13.3-9.4v0.5q0 0.7-0.2 0.9-0.2 0.3-0.4 0.3l-7 0.1q0.1 1.6 0.3 3 0.3 1.3 0.8 2.3 0.4 0.9 1.1 1.4 0.8 0.5 1.8 0.5 0.7 0 1.2-0.2 0.6-0.2 1-0.5 0.4-0.3 0.7-0.5 0.2-0.2 0.3-0.2 0.1 0 0.2 0.1 0 0 0.1 0.2 0 0.1 0 0.3 0 0.2 0.1 0.5 0 0.1 0 0.2 0 0.2-0.1 0.3 0 0.1 0 0.2 0 0.1-0.1 0.2 0 0.1-0.3 0.3-0.3 0.3-0.8 0.5-0.4 0.3-1.1 0.5-0.6 0.2-1.3 0.2-1.2 0-2.1-0.6-1-0.6-1.7-1.8-0.6-1.3-1-3-0.4-1.8-0.5-4.2-0.1-2.3 0.1-4.1 0.3-1.8 0.8-3.1 0.6-1.2 1.5-1.9 0.8-0.7 1.9-0.7 1.1 0 2 0.7 0.8 0.6 1.4 1.8 0.6 1.1 0.9 2.6 0.3 1.5 0.4 3.2zm-7.7-0.2h6.3q-0.1-2.9-1-4.5-0.8-1.6-2.3-1.6-0.8 0-1.4 0.6-0.5 0.5-0.9 1.3-0.3 0.8-0.5 1.9-0.2 1.1-0.2 2.3zm29.3-7.2l-3 18-1.2 6.7q0 0.2-0.2 0.4-0.2 0.1-0.5 0.1-0.3 0-0.4 0-0.1 0-0.2-0.1-0.1-0.2-0.1-0.3 0-0.2 0-0.4l1.2-6.4q-0.1-0.1-0.2-0.2 0-0.1-0.1-0.3l-4.5-17.4q0-0.3 0-0.5-0.1-0.1 0-0.2 0.1-0.1 0.2-0.2 0.1 0 0.4 0 0.2 0 0.4 0 0.1 0 0.2 0.1 0.1 0.1 0.1 0.2 0.1 0.1 0.1 0.2l3.9 15.6h0.1l2.4-15.7q0.1-0.2 0.2-0.3 0.1-0.1 0.2-0.1 0.2-0.1 0.4-0.1 0.2 0 0.3 0.1 0.2 0 0.3 0.1 0 0.1 0 0.3 0.1 0.1 0 0.4zm21.3 14.7q0 0.3 0 0.5 0 0.2 0 0.3-0.1 0.1-0.1 0.2 0 0.1-0.2 0.4-0.1 0.3-0.4 0.7-0.3 0.4-0.8 0.7-0.4 0.3-0.9 0.5-0.5 0.1-1 0.2-1.1 0-1.9-0.6-0.9-0.7-1.5-1.9-0.6-1.2-0.9-3-0.4-1.7-0.5-4.1-0.1-2.6 0.1-4.4 0.3-1.9 0.9-3.1 0.6-1.2 1.4-1.7 0.8-0.6 1.7-0.6 0.5 0 1 0.1 0.5 0.2 0.9 0.5 0.4 0.2 0.7 0.6 0.3 0.3 0.5 0.6 0.1 0.2 0.2 0.4 0.1 0.1 0.1 0.3 0 0.1 0 0.3 0.1 0.2 0.1 0.4 0 0.6-0.1 0.9-0.1 0.2-0.2 0.2-0.1 0-0.4-0.4-0.2-0.3-0.6-0.7-0.4-0.5-0.9-0.8-0.6-0.4-1.3-0.4-1.5 0-2.2 2-0.7 2-0.5 5.8 0.1 1.8 0.4 3.3 0.2 1.4 0.7 2.3 0.4 0.9 1 1.4 0.6 0.5 1.3 0.5 0.7-0.1 1.2-0.4 0.5-0.4 0.9-0.9 0.4-0.4 0.6-0.8 0.2-0.4 0.4-0.4 0 0 0.1 0.1 0 0 0.1 0.2 0 0.1 0 0.4 0.1 0.2 0.1 0.4zm13.6-7.8v0.5q0.1 0.7-0.2 1-0.2 0.2-0.4 0.2l-6.9 0.1q0 1.7 0.3 3 0.2 1.4 0.7 2.3 0.5 1 1.2 1.5 0.7 0.5 1.7 0.5 0.7 0 1.3-0.2 0.5-0.3 0.9-0.5 0.4-0.3 0.7-0.5 0.2-0.2 0.4-0.2 0-0.1 0.1 0 0 0.1 0.1 0.2 0 0.1 0 0.3 0.1 0.2 0.1 0.5 0 0.2 0 0.3 0 0.1 0 0.2 0 0.1-0.1 0.2 0 0.1-0.1 0.2 0 0.1-0.3 0.4-0.3 0.2-0.7 0.5-0.5 0.2-1.1 0.4-0.6 0.2-1.4 0.2-1.2 0.1-2.1-0.6-0.9-0.6-1.6-1.8-0.7-1.2-1.1-3-0.4-1.8-0.5-4.2-0.1-2.3 0.1-4.1 0.3-1.8 0.9-3 0.5-1.3 1.4-2 0.8-0.6 1.9-0.6 1.2 0 2 0.6 0.9 0.7 1.4 1.8 0.6 1.2 0.9 2.7 0.3 1.5 0.4 3.1zm-7.6-0.1l6.2-0.1q-0.1-2.8-0.9-4.4-0.9-1.6-2.4-1.6-0.8 0-1.3 0.5-0.6 0.5-1 1.3-0.3 0.9-0.5 2-0.1 1.1-0.1 2.3zm21.9-0.5l0.5 10.9q0 0.1-0.1 0.2 0 0.1-0.1 0.1 0 0.1-0.2 0.1-0.1 0.1-0.3 0.1-0.2 0-0.3-0.1-0.1 0-0.2-0.1-0.1 0-0.1-0.1-0.1-0.1-0.1-0.2l-0.4-10.7q-0.1-1.6-0.3-2.7-0.2-1-0.5-1.7-0.4-0.8-0.8-1.2-0.5-0.4-1.1-0.4-0.8 0-1.5 1-0.8 1-1.6 2.9l0.6 12.8q0 0.1 0 0.2 0 0.1-0.1 0.2-0.1 0.1-0.2 0.1-0.1 0-0.4 0-0.1 0-0.3 0-0.1 0-0.2-0.1-0.1-0.1-0.1-0.2 0-0.1 0-0.2l-0.8-17.9q0-0.1 0-0.2 0-0.1 0.1-0.2 0.1 0 0.2-0.1 0.1 0 0.3 0 0.2 0 0.3 0 0.1 0 0.2 0.1 0.1 0.1 0.1 0.2 0 0.1 0 0.2l0.2 2.5q0.8-1.7 1.6-2.5 0.8-0.8 1.6-0.8 1 0 1.8 0.6 0.7 0.6 1.1 1.6 0.5 1 0.8 2.4 0.2 1.3 0.3 3.2zm11.8 9.7q0 0.4 0 0.7-0.1 0.2-0.2 0.4 0 0.1-0.2 0.3-0.1 0.1-0.4 0.2-0.2 0.1-0.4 0.1-0.2 0.1-0.5 0.1-0.7 0-1.3-0.4-0.5-0.3-0.9-1-0.4-0.8-0.6-1.9-0.2-1.1-0.2-2.6l-0.5-11.1h-1.5q-0.2 0-0.3-0.3-0.1-0.2-0.1-0.7 0-0.3 0-0.4 0-0.2 0-0.4 0.1-0.1 0.1-0.2 0.1 0 0.2 0h1.5l-0.2-4.4q0-0.1 0-0.2 0-0.1 0.1-0.2 0.1-0.1 0.2-0.1 0.2 0 0.3 0 0.2 0 0.4 0 0.1 0 0.2 0.1 0.1 0 0.1 0.1 0 0.1 0 0.3l0.2 4.4 2.9-0.1q0 0 0.1 0.1 0.1 0.1 0.1 0.2 0.1 0.1 0.1 0.3 0 0.2 0.1 0.4 0 0.5-0.1 0.8-0.1 0.2-0.2 0.2l-2.9 0.1 0.5 10.8q0.1 2 0.5 3.1 0.4 1.1 1.2 1.1 0.3 0 0.5-0.1 0.2-0.1 0.4-0.3 0.2-0.1 0.3-0.2 0.1-0.1 0.2-0.1 0 0 0.1 0.1 0 0 0.1 0.1 0 0.1 0 0.3 0.1 0.1 0.1 0.4zm10.5-16q0 0.3 0 0.5 0 0.2 0 0.3 0 0.1 0 0.2-0.1 0.1-0.1 0.1-0.1 0-0.3-0.1-0.1-0.1-0.3-0.2-0.2-0.1-0.4-0.2-0.2-0.1-0.5-0.1-0.3 0-0.6 0.3-0.3 0.2-0.6 0.7-0.3 0.5-0.6 1.4-0.3 0.8-0.7 2l0.5 12.1q0.1 0.1 0 0.2 0 0.1-0.1 0.2 0 0.1-0.2 0.1-0.1 0-0.3 0-0.2 0-0.3 0-0.2 0-0.2-0.1-0.1-0.1-0.2-0.2 0-0.1 0-0.2l-0.8-17.9q0-0.1 0-0.2 0.1-0.1 0.1-0.2 0.1-0.1 0.2-0.1 0.1 0 0.3 0 0.2 0 0.4 0 0.1 0 0.1 0.1 0.1 0.1 0.1 0.2 0.1 0.1 0.1 0.2l0.1 2.8q0.4-1.1 0.7-1.8 0.4-0.7 0.7-1.1 0.3-0.4 0.6-0.5 0.4-0.2 0.7-0.2 0.2 0 0.4 0.1 0.1 0 0.4 0.1 0.2 0.1 0.4 0.2 0.2 0.1 0.2 0.2 0.1 0 0.1 0.1 0.1 0.1 0.1 0.2 0 0.1 0 0.3 0 0.2 0 0.5zm14.2 7.7q0.1 2.2-0.1 4-0.3 1.8-0.8 3.1-0.6 1.3-1.5 2.1-0.9 0.7-2.2 0.7-1.2 0.1-2.1-0.6-0.9-0.7-1.6-1.9-0.7-1.2-1-3-0.4-1.7-0.5-4-0.1-2.1 0.1-3.9 0.3-1.8 0.8-3.1 0.6-1.4 1.5-2.1 0.9-0.7 2.2-0.7 1.2-0.1 2.1 0.6 0.9 0.6 1.6 1.9 0.6 1.2 1 3 0.4 1.7 0.5 3.9zm-1.4 0.3q-0.1-1.6-0.3-3-0.2-1.3-0.7-2.4-0.4-1.1-1.1-1.7-0.7-0.6-1.7-0.6-0.9 0-1.6 0.6-0.6 0.6-1 1.6-0.4 1-0.5 2.4-0.2 1.4-0.1 3 0.1 1.6 0.3 3 0.2 1.3 0.7 2.4 0.4 1 1.1 1.6 0.7 0.7 1.7 0.6 0.9 0 1.6-0.5 0.6-0.6 1-1.6 0.4-1.1 0.5-2.4 0.2-1.4 0.1-3zm21.7 3.9q0 1.3-0.2 2.4-0.2 1-0.7 1.7-0.5 0.7-1.1 1.1-0.7 0.4-1.6 0.4-0.5 0-1-0.2-0.5-0.1-0.9-0.3-0.4-0.3-0.6-0.5-0.3-0.3-0.4-0.5-0.2-0.2-0.3-0.5 0-0.3 0-0.8-0.1-0.2 0-0.4 0-0.2 0-0.3 0-0.2 0.1-0.2 0-0.1 0.1-0.1 0.1 0 0.4 0.2 0.2 0.3 0.6 0.7 0.4 0.3 0.9 0.5 0.5 0.3 1.1 0.3 0.5 0 1-0.2 0.4-0.2 0.7-0.6 0.3-0.4 0.4-1 0.2-0.6 0.2-1.5-0.1-0.8-0.3-1.4-0.3-0.6-0.7-1-0.4-0.4-0.9-0.7-0.4-0.3-0.9-0.7-0.5-0.3-1-0.7-0.5-0.5-0.9-1-0.4-0.6-0.7-1.5-0.2-0.8-0.3-2 0-0.9 0.1-1.8 0.2-0.9 0.6-1.6 0.4-0.7 1-1.2 0.7-0.4 1.6-0.4 0.4 0 0.7 0.1 0.4 0.1 0.7 0.3 0.4 0.1 0.6 0.4 0.2 0.2 0.4 0.3 0.1 0.2 0.1 0.3 0.1 0.1 0.1 0.2 0 0.1 0 0.3 0.1 0.2 0.1 0.4 0 0.2 0 0.4 0 0.2-0.1 0.3 0 0.2 0 0.3-0.1 0-0.2 0 0 0-0.2-0.2-0.2-0.2-0.5-0.5-0.3-0.2-0.8-0.4-0.4-0.2-0.9-0.2-0.5 0-0.9 0.2-0.4 0.2-0.7 0.6-0.2 0.4-0.3 0.9-0.1 0.6-0.1 1.2 0 0.9 0.3 1.5 0.3 0.6 0.6 1 0.4 0.4 0.9 0.8 0.5 0.3 1 0.6 0.5 0.4 1 0.8 0.5 0.4 0.9 0.9 0.4 0.6 0.7 1.4 0.2 0.8 0.3 1.9zm13.5-13.2l0.8 17.9q0 0.1 0 0.2 0 0.1-0.1 0.2-0.1 0-0.2 0.1-0.1 0-0.3 0-0.2 0-0.3 0-0.2-0.1-0.2-0.1-0.1-0.1-0.1-0.2-0.1-0.1-0.1-0.2l-0.1-2.5q-0.8 1.7-1.6 2.5-0.8 0.8-1.7 0.8-1 0-1.7-0.6-0.7-0.6-1.2-1.6-0.4-1-0.7-2.4-0.2-1.3-0.3-3.2l-0.5-10.9q0-0.1 0-0.2 0.1-0.1 0.1-0.1 0.1-0.1 0.2-0.1 0.2-0.1 0.4-0.1 0.2 0 0.3 0.1 0.1 0 0.2 0.1 0.1 0 0.1 0.1 0.1 0.1 0.1 0.2l0.4 10.6q0.1 1.7 0.3 2.8 0.2 1 0.5 1.8 0.3 0.7 0.8 1.1 0.5 0.4 1.1 0.4 0.8 0 1.5-1 0.7-1 1.5-2.9l-0.5-12.8q0-0.1 0-0.2 0-0.1 0.1-0.2 0.1-0.1 0.2-0.1 0.1 0 0.3 0 0.2 0 0.3 0 0.2 0 0.3 0.1 0 0.1 0.1 0.2 0 0.1 0 0.2zm12.4 0.8q0 0.3 0 0.5 0 0.2 0 0.3 0 0.2-0.1 0.2 0 0.1-0.1 0.1-0.1 0-0.2-0.1-0.1-0.1-0.3-0.2-0.2-0.1-0.4-0.2-0.2 0-0.5 0-0.3 0-0.6 0.2-0.3 0.2-0.6 0.7-0.3 0.5-0.6 1.4-0.3 0.8-0.7 2l0.5 12.1q0 0.1 0 0.2 0 0.1-0.1 0.2-0.1 0.1-0.2 0.1-0.1 0-0.3 0-0.2 0.1-0.3 0-0.2 0-0.3-0.1 0 0-0.1-0.1 0-0.1 0-0.3l-0.8-17.9q0-0.1 0-0.2 0-0.1 0.1-0.2 0.1 0 0.2-0.1 0.1 0 0.3 0 0.2 0 0.3 0 0.2 0.1 0.2 0.1 0.1 0.1 0.1 0.2 0.1 0.1 0.1 0.2l0.1 2.8q0.4-1.1 0.7-1.8 0.4-0.7 0.7-1.1 0.3-0.4 0.6-0.5 0.4-0.1 0.7-0.1 0.2 0 0.3 0 0.2 0 0.5 0.1 0.2 0.1 0.4 0.2 0.1 0.1 0.2 0.2 0.1 0.1 0.1 0.1 0 0.1 0.1 0.2 0 0.1 0 0.3 0 0.2 0 0.5zm22.8 7.7q0.1 2.1-0.1 3.9-0.3 1.8-0.9 3.1-0.5 1.4-1.4 2.1-0.9 0.8-2.2 0.8-1.2 0-2.1-0.6-0.9-0.7-1.6-1.9-0.7-1.3-1.1-3-0.3-1.8-0.4-4-0.1-2.2 0.1-4 0.2-1.8 0.8-3.1 0.6-1.3 1.5-2 0.9-0.8 2.2-0.8 1.2 0 2.1 0.6 0.9 0.7 1.6 1.9 0.6 1.2 1 3 0.4 1.8 0.5 4zm-1.4 0.2q-0.1-1.5-0.3-2.9-0.3-1.4-0.7-2.4-0.4-1.1-1.1-1.7-0.7-0.6-1.7-0.6-0.9 0-1.6 0.5-0.6 0.6-1 1.7-0.4 1-0.5 2.4-0.2 1.3-0.1 3 0.1 1.5 0.3 2.9 0.2 1.4 0.7 2.4 0.4 1.1 1.1 1.7 0.7 0.6 1.7 0.6 0.9 0 1.6-0.6 0.6-0.6 1-1.6 0.4-1 0.5-2.4 0.1-1.4 0.1-3zm15.6-1.6v0.5q0.1 0.7-0.1 1-0.2 0.3-0.4 0.3h-7q0 1.7 0.3 3 0.2 1.4 0.7 2.3 0.5 1 1.2 1.5 0.7 0.5 1.7 0.5 0.7 0 1.3-0.2 0.5-0.2 0.9-0.5 0.5-0.3 0.7-0.5 0.3-0.2 0.4-0.2 0 0 0.1 0 0.1 0.1 0.1 0.2 0 0.1 0.1 0.3 0 0.2 0 0.5 0 0.2 0 0.3 0 0.1 0 0.3 0 0.1-0.1 0.2 0 0.1 0 0.2-0.1 0.1-0.4 0.3-0.3 0.3-0.7 0.5-0.5 0.3-1.1 0.5-0.6 0.2-1.3 0.2-1.2 0-2.2-0.6-0.9-0.7-1.6-1.9-0.7-1.2-1.1-3-0.4-1.8-0.5-4.2-0.1-2.2 0.2-4 0.2-1.8 0.8-3.1 0.6-1.3 1.4-1.9 0.9-0.7 1.9-0.7 1.2 0 2 0.6 0.9 0.7 1.4 1.8 0.6 1.2 0.9 2.7 0.3 1.5 0.4 3.1zm-7.6-0.1l6.2-0.1q-0.1-2.8-0.9-4.4-0.9-1.6-2.4-1.6-0.7 0-1.3 0.5-0.6 0.5-0.9 1.4-0.4 0.8-0.6 1.9-0.1 1.1-0.1 2.3zm19.9 5.6q0 1.3-0.2 2.3-0.2 1.1-0.7 1.8-0.4 0.7-1.1 1.1-0.7 0.4-1.6 0.4-0.5 0-1-0.2-0.5-0.1-0.9-0.3-0.4-0.3-0.6-0.5-0.3-0.3-0.4-0.5-0.2-0.2-0.2-0.5-0.1-0.3-0.1-0.8-0.1-0.2 0-0.4 0-0.2 0-0.4 0-0.1 0.1-0.2 0 0 0.1 0 0.1 0 0.4 0.2 0.2 0.3 0.6 0.7 0.4 0.3 0.9 0.5 0.5 0.3 1.1 0.3 0.6 0 1-0.2 0.4-0.2 0.7-0.6 0.3-0.4 0.4-1 0.2-0.6 0.2-1.5-0.1-0.8-0.3-1.4-0.3-0.6-0.7-1-0.4-0.4-0.9-0.7-0.4-0.3-0.9-0.7-0.5-0.3-1-0.7-0.5-0.5-0.9-1-0.4-0.6-0.7-1.5-0.2-0.8-0.3-2 0-0.9 0.1-1.8 0.2-0.9 0.6-1.6 0.4-0.7 1-1.2 0.7-0.4 1.6-0.4 0.4 0 0.7 0.1 0.4 0.1 0.7 0.3 0.4 0.1 0.6 0.4 0.2 0.1 0.4 0.3 0.1 0.2 0.1 0.3 0.1 0.1 0.1 0.2 0 0.1 0 0.3 0.1 0.2 0.1 0.4 0 0.2 0 0.4 0 0.2-0.1 0.3 0 0.2 0 0.3-0.1 0-0.2 0 0 0-0.2-0.2-0.2-0.2-0.5-0.5-0.3-0.2-0.8-0.4-0.4-0.2-0.9-0.2-0.5 0-0.9 0.2-0.4 0.2-0.7 0.6-0.2 0.4-0.3 0.9-0.1 0.6-0.1 1.2 0 0.9 0.3 1.5 0.3 0.6 0.6 1 0.4 0.4 0.9 0.8 0.5 0.3 1 0.6 0.5 0.4 1 0.8 0.5 0.4 0.9 0.9 0.4 0.6 0.7 1.4 0.2 0.8 0.3 1.9zm10.7 3.6q0 0.5-0.1 0.7 0 0.3-0.1 0.4 0 0.2-0.2 0.3-0.2 0.1-0.4 0.2-0.2 0.1-0.4 0.2-0.3 0-0.5 0-0.7 0-1.3-0.3-0.5-0.4-0.9-1.1-0.4-0.7-0.6-1.8-0.2-1.1-0.2-2.6l-0.5-11.2h-1.6q-0.1 0-0.2-0.2-0.1-0.3-0.1-0.8-0.1-0.2 0-0.4 0-0.2 0-0.3 0-0.1 0.1-0.2 0.1-0.1 0.1-0.1h1.6l-0.2-4.4q0-0.1 0-0.2 0-0.1 0.1-0.2 0.1 0 0.2-0.1 0.1 0 0.3 0 0.2 0 0.4 0 0.1 0.1 0.2 0.1 0 0.1 0.1 0.2 0 0.1 0 0.2l0.2 4.4h2.9q0 0 0.1 0 0.1 0.1 0.1 0.2 0.1 0.2 0.1 0.4 0 0.1 0 0.4 0.1 0.5 0 0.7-0.1 0.3-0.3 0.3h-2.8l0.5 10.8q0.1 2.1 0.5 3.1 0.3 1.1 1.2 1.1 0.3 0 0.5-0.1 0.2-0.1 0.4-0.2 0.2-0.1 0.3-0.2 0.1-0.1 0.2-0.1 0 0 0.1 0 0 0 0.1 0.2 0 0.1 0 0.2 0 0.2 0.1 0.4zm13.3-9.3v0.4q0 0.7-0.2 1-0.2 0.3-0.4 0.3h-7q0.1 1.7 0.3 3 0.3 1.4 0.8 2.4 0.4 0.9 1.1 1.4 0.8 0.5 1.8 0.5 0.7 0 1.2-0.2 0.6-0.2 1-0.5 0.4-0.3 0.6-0.5 0.3-0.2 0.4-0.2 0.1 0 0.1 0 0.1 0.1 0.1 0.2 0.1 0.2 0.1 0.4 0 0.2 0 0.4 0.1 0.2 0 0.3 0 0.1 0 0.3 0 0.1 0 0.2 0 0.1-0.1 0.2 0 0.1-0.3 0.3-0.3 0.3-0.8 0.5-0.4 0.3-1.1 0.5-0.6 0.2-1.3 0.2-1.2 0-2.1-0.6-1-0.6-1.7-1.9-0.6-1.2-1-3-0.4-1.8-0.5-4.1-0.2-2.3 0.1-4.1 0.3-1.8 0.8-3.1 0.6-1.3 1.4-1.9 0.9-0.7 2-0.7 1.1 0 2 0.6 0.8 0.7 1.4 1.9 0.6 1.1 0.9 2.6 0.3 1.5 0.4 3.2zm-7.7-0.2l6.3-0.1q-0.1-2.8-1-4.4-0.8-1.6-2.3-1.6-0.8 0-1.4 0.5-0.5 0.5-0.9 1.4-0.4 0.8-0.5 1.9-0.2 1.1-0.2 2.3zm28.1 5.6q0 1.3-0.2 2.3-0.2 1-0.7 1.7-0.5 0.7-1.2 1.1-0.6 0.4-1.5 0.4-0.5 0-1-0.1-0.5-0.2-0.9-0.4-0.4-0.2-0.7-0.5-0.2-0.2-0.4-0.4-0.1-0.2-0.2-0.5 0-0.3-0.1-0.8 0-0.3 0-0.5 0.1-0.2 0.1-0.3 0-0.2 0.1-0.2 0-0.1 0.1-0.1 0.1 0 0.4 0.3 0.2 0.3 0.6 0.6 0.4 0.3 0.9 0.6 0.5 0.3 1.1 0.2 0.5 0 1-0.2 0.4-0.2 0.7-0.6 0.3-0.4 0.4-1 0.2-0.6 0.1-1.4 0-0.9-0.3-1.4-0.2-0.6-0.6-1-0.4-0.5-0.9-0.8-0.5-0.3-1-0.6-0.5-0.4-1-0.8-0.4-0.4-0.8-1-0.4-0.6-0.7-1.4-0.3-0.9-0.3-2 0-1 0.1-1.8 0.2-1 0.6-1.7 0.4-0.7 1-1.1 0.7-0.5 1.6-0.5 0.3 0 0.7 0.1 0.4 0.1 0.7 0.3 0.3 0.2 0.6 0.4 0.2 0.2 0.3 0.3 0.2 0.2 0.2 0.3 0.1 0.1 0.1 0.2 0 0.2 0 0.3 0 0.2 0.1 0.4 0 0.3 0 0.5-0.1 0.1-0.1 0.3 0 0.1-0.1 0.2 0 0.1-0.1 0.1-0.1 0-0.3-0.3-0.1-0.2-0.5-0.4-0.3-0.3-0.7-0.5-0.4-0.2-0.9-0.2-0.6 0-1 0.2-0.3 0.2-0.6 0.6-0.2 0.4-0.3 1-0.1 0.5-0.1 1.1 0 0.9 0.3 1.5 0.2 0.6 0.6 1 0.4 0.5 0.9 0.8 0.5 0.3 1 0.7 0.5 0.3 1 0.7 0.5 0.4 0.9 1 0.4 0.5 0.7 1.4 0.2 0.7 0.3 1.9zm13.9-5.7v0.5q0.1 0.7-0.1 0.9-0.2 0.3-0.4 0.3l-7 0.1q0.1 1.6 0.3 3 0.2 1.3 0.7 2.3 0.5 0.9 1.2 1.4 0.7 0.5 1.7 0.5 0.7 0 1.3-0.2 0.6-0.2 0.9-0.5 0.5-0.3 0.7-0.5 0.3-0.2 0.4-0.2 0.1 0 0.1 0.1 0.1 0 0.1 0.2 0 0.1 0.1 0.3 0 0.2 0 0.5 0 0.1 0 0.2 0 0.2 0 0.3 0 0.1 0 0.2-0.1 0.1-0.1 0.2-0.1 0.1-0.4 0.3-0.2 0.3-0.7 0.5-0.5 0.3-1.1 0.5-0.6 0.2-1.3 0.2-1.2 0-2.2-0.6-0.9-0.6-1.6-1.8-0.7-1.3-1.1-3.1-0.4-1.8-0.5-4.1-0.1-2.3 0.2-4.1 0.2-1.8 0.8-3.1 0.6-1.2 1.4-1.9 0.9-0.7 1.9-0.7 1.2 0 2 0.7 0.9 0.6 1.5 1.8 0.5 1.1 0.8 2.6 0.4 1.5 0.4 3.2zm-7.6-0.2h6.2q-0.1-2.9-0.9-4.5-0.9-1.6-2.4-1.6-0.7 0-1.3 0.6-0.6 0.5-0.9 1.3-0.4 0.8-0.6 1.9-0.1 1.1-0.1 2.3zm29.3 7.7q0 0.2 0 0.4 0 0.2 0 0.4-0.1 0.1-0.1 0.2 0 0.1-0.2 0.4-0.1 0.2-0.4 0.6-0.4 0.4-0.8 0.7-0.4 0.3-0.9 0.5-0.5 0.2-1 0.2-1.1 0-1.9-0.6-0.9-0.6-1.5-1.8-0.6-1.2-1-3-0.3-1.8-0.4-4.1-0.1-2.6 0.1-4.5 0.3-1.8 0.9-3 0.6-1.2 1.4-1.8 0.8-0.6 1.7-0.6 0.5 0 1 0.2 0.5 0.2 0.9 0.4 0.4 0.3 0.7 0.7 0.3 0.3 0.5 0.6 0.1 0.2 0.2 0.3 0 0.2 0.1 0.3 0 0.2 0 0.4 0.1 0.2 0.1 0.4 0 0.6-0.1 0.8-0.1 0.2-0.2 0.2-0.2 0-0.4-0.3-0.3-0.4-0.6-0.8-0.4-0.4-1-0.8-0.5-0.3-1.2-0.3-1.5 0-2.2 2-0.7 2-0.5 5.7 0.1 1.9 0.3 3.3 0.3 1.4 0.8 2.4 0.4 0.9 1 1.4 0.6 0.4 1.3 0.4 0.7 0 1.2-0.4 0.5-0.3 0.9-0.8 0.3-0.5 0.6-0.8 0.2-0.4 0.3-0.4 0.1 0 0.2 0.1 0 0 0.1 0.2 0 0.1 0 0.3 0.1 0.2 0.1 0.5zm14.1-6.6q0.1 2.1-0.1 3.9-0.3 1.8-0.8 3.2-0.6 1.3-1.5 2.1-0.9 0.7-2.2 0.7-1.2 0-2.1-0.6-0.9-0.7-1.6-1.9-0.6-1.3-1-3-0.4-1.8-0.5-4-0.1-2.1 0.1-3.9 0.3-1.8 0.9-3.1 0.5-1.4 1.4-2.1 0.9-0.8 2.2-0.8 1.2 0 2.1 0.7 1 0.6 1.6 1.9 0.7 1.2 1 2.9 0.4 1.8 0.5 4zm-1.4 0.2q-0.1-1.5-0.3-2.9-0.2-1.4-0.7-2.4-0.4-1.1-1.1-1.7-0.7-0.6-1.7-0.6-0.9 0-1.6 0.6-0.6 0.6-1 1.6-0.4 1-0.5 2.4-0.1 1.4-0.1 3 0.1 1.5 0.3 2.9 0.3 1.4 0.7 2.5 0.4 1 1.1 1.6 0.7 0.6 1.7 0.6 1 0 1.6-0.6 0.6-0.5 1-1.6 0.4-1 0.5-2.4 0.2-1.4 0.1-3zm15.6-2l0.5 10.8q0 0.1-0.1 0.2 0 0.1-0.1 0.2 0 0.1-0.2 0.1-0.1 0-0.3 0-0.2 0.1-0.3 0-0.1 0-0.2-0.1-0.1 0-0.1-0.1-0.1-0.1-0.1-0.3l-0.4-10.6q-0.1-1.7-0.3-2.7-0.2-1-0.5-1.8-0.4-0.7-0.8-1.1-0.5-0.4-1.1-0.4-0.8 0-1.5 1-0.8 0.9-1.6 2.8l0.6 12.9q0 0.1 0 0.2-0.1 0.1-0.1 0.2-0.1 0-0.2 0.1-0.2 0-0.4 0-0.1 0-0.3 0-0.1-0.1-0.2-0.1-0.1-0.1-0.1-0.2 0-0.1 0-0.2l-0.8-17.9q0-0.1 0-0.2 0-0.1 0.1-0.2 0.1-0.1 0.2-0.1 0.1 0 0.3 0 0.2 0 0.3 0 0.1 0 0.2 0.1 0.1 0 0.1 0.1 0 0.1 0 0.3l0.2 2.5q0.8-1.7 1.6-2.5 0.8-0.8 1.6-0.8 1 0 1.8 0.6 0.7 0.6 1.1 1.6 0.5 1 0.8 2.3 0.2 1.4 0.3 3.3zm14.1 8.1q0.1 0.2 0.1 0.4-0.1 0.2-0.1 0.3 0 0.2 0 0.3-0.1 0.1-0.2 0.3-0.1 0.3-0.5 0.7-0.3 0.4-0.7 0.7-0.4 0.3-0.9 0.5-0.5 0.2-1 0.2-1.1 0-1.9-0.6-0.9-0.6-1.5-1.9-0.6-1.2-1-2.9-0.3-1.8-0.4-4.1-0.2-2.6 0.1-4.5 0.3-1.9 0.9-3.1 0.5-1.2 1.3-1.7 0.8-0.6 1.8-0.6 0.5 0 1 0.2 0.5 0.1 0.8 0.4 0.5 0.3 0.8 0.6 0.3 0.4 0.4 0.6 0.2 0.3 0.3 0.4 0 0.1 0 0.3 0.1 0.1 0.1 0.3 0 0.2 0 0.5 0.1 0.5 0 0.8-0.1 0.2-0.2 0.2-0.2 0-0.4-0.3-0.3-0.4-0.7-0.8-0.3-0.4-0.9-0.8-0.5-0.4-1.2-0.3-1.5 0-2.2 2-0.7 1.9-0.5 5.7 0 1.9 0.3 3.3 0.3 1.4 0.7 2.3 0.5 1 1.1 1.4 0.6 0.5 1.3 0.5 0.7 0 1.2-0.4 0.5-0.4 0.9-0.8 0.3-0.5 0.6-0.9 0.2-0.4 0.3-0.4 0.1 0 0.1 0.1 0.1 0.1 0.1 0.2 0.1 0.2 0.1 0.4 0 0.2 0 0.5zm13.7-7.9v0.5q0 0.7-0.2 1-0.2 0.3-0.4 0.3h-7q0.1 1.7 0.3 3 0.3 1.4 0.8 2.4 0.4 0.9 1.1 1.4 0.8 0.5 1.8 0.5 0.7 0 1.2-0.2 0.6-0.2 1-0.5 0.4-0.3 0.6-0.5 0.3-0.2 0.4-0.2 0.1 0 0.1 0 0.1 0.1 0.1 0.2 0.1 0.2 0.1 0.4 0 0.1 0.1 0.4 0 0.2 0 0.3-0.1 0.1-0.1 0.3 0 0.1 0 0.2 0 0.1-0.1 0.2 0 0.1-0.3 0.3-0.3 0.3-0.8 0.5-0.4 0.3-1.1 0.5-0.6 0.2-1.3 0.2-1.2 0-2.1-0.6-1-0.7-1.7-1.9-0.6-1.2-1-3-0.4-1.8-0.5-4.2-0.1-2.2 0.1-4 0.3-1.8 0.8-3.1 0.6-1.3 1.4-1.9 0.9-0.7 2-0.7 1.1 0 2 0.6 0.8 0.7 1.4 1.9 0.6 1.1 0.9 2.6 0.3 1.5 0.4 3.1zm-7.7-0.1l6.3-0.1q-0.1-2.8-1-4.4-0.8-1.6-2.3-1.6-0.8 0-1.4 0.5-0.5 0.5-0.9 1.4-0.3 0.8-0.5 1.9-0.2 1.1-0.2 2.3zm22-0.5l0.4 10.9q0 0.1 0 0.2 0 0.1-0.1 0.2-0.1 0-0.2 0.1-0.1 0-0.3 0-0.2 0-0.4 0-0.1-0.1-0.2-0.1 0-0.1-0.1-0.2 0-0.1 0-0.2l-0.5-10.6q-0.1-1.7-0.2-2.7-0.2-1.1-0.6-1.8-0.3-0.8-0.8-1.1-0.4-0.5-1.1-0.5-0.7 0.1-1.5 1-0.7 1-1.5 2.9l0.6 12.8q0 0.2-0.1 0.3 0 0.1-0.1 0.1 0 0.1-0.2 0.1-0.1 0.1-0.3 0.1-0.2 0-0.3-0.1-0.1 0-0.2-0.1-0.1 0-0.1-0.1-0.1-0.1-0.1-0.2l-0.8-18q0-0.1 0-0.2 0.1-0.1 0.2-0.1 0-0.1 0.1-0.1 0.2-0.1 0.4-0.1 0.2 0 0.3 0.1 0.1 0 0.2 0.1 0 0 0.1 0.1 0 0.1 0 0.2l0.1 2.6q0.8-1.8 1.6-2.5 0.9-0.8 1.7-0.8 1 0 1.7 0.5 0.7 0.6 1.2 1.6 0.5 1 0.7 2.4 0.3 1.3 0.4 3.2zm11.7 9.7q0.1 0.4 0 0.7 0 0.3-0.1 0.4-0.1 0.2-0.2 0.3-0.2 0.1-0.4 0.2-0.2 0.1-0.4 0.2-0.3 0-0.5 0-0.8 0-1.3-0.3-0.6-0.4-0.9-1.1-0.4-0.7-0.6-1.8-0.2-1.1-0.3-2.7l-0.5-11.1h-1.5q-0.1 0-0.2-0.2-0.1-0.3-0.2-0.8 0-0.2 0-0.4 0.1-0.2 0.1-0.3 0-0.2 0.1-0.2 0-0.1 0.1-0.1h1.6l-0.2-4.4q0-0.1 0-0.2 0-0.1 0.1-0.2 0.1-0.1 0.2-0.1 0.1 0 0.3 0 0.2 0 0.3 0 0.2 0 0.2 0.1 0.1 0.1 0.2 0.2 0 0.1 0 0.2l0.2 4.4h2.8q0.1 0 0.2 0 0 0.1 0.1 0.2 0 0.1 0.1 0.3 0 0.2 0 0.5 0 0.5 0 0.7-0.1 0.3-0.3 0.3h-2.8l0.5 10.8q0.1 2.1 0.4 3.1 0.4 1.1 1.3 1.1 0.3 0 0.5-0.1 0.2-0.1 0.4-0.2 0.1-0.2 0.2-0.3 0.2-0.1 0.3-0.1 0 0 0.1 0.1 0 0 0 0.1 0.1 0.1 0.1 0.3 0 0.2 0 0.4zm10.6-16q0 0.3 0 0.5 0 0.2 0 0.4 0 0.1-0.1 0.1 0 0.1-0.1 0.1-0.1 0-0.2-0.1-0.2-0.1-0.3-0.2-0.2-0.1-0.4-0.1-0.3-0.1-0.5-0.1-0.3 0-0.6 0.2-0.3 0.2-0.6 0.7-0.3 0.5-0.6 1.4-0.3 0.8-0.7 2l0.5 12.1q0 0.2 0 0.3 0 0.1-0.1 0.1-0.1 0.1-0.2 0.1-0.1 0.1-0.3 0.1-0.2 0-0.4-0.1-0.1 0-0.2-0.1-0.1 0-0.1-0.1 0-0.1 0-0.2l-0.8-18q0-0.1 0-0.2 0-0.1 0.1-0.1 0.1-0.1 0.2-0.1 0.1-0.1 0.3-0.1 0.2 0 0.3 0.1 0.1 0 0.2 0 0.1 0.1 0.1 0.2 0.1 0.1 0.1 0.2l0.1 2.9q0.4-1.2 0.7-1.9 0.4-0.7 0.7-1 0.3-0.4 0.6-0.6 0.3-0.1 0.7-0.1 0.1 0 0.3 0 0.2 0 0.4 0.1 0.3 0.1 0.4 0.2 0.2 0.1 0.3 0.2 0.1 0.1 0.1 0.1 0 0.1 0 0.2 0.1 0.1 0.1 0.3 0 0.2 0 0.5zm12.2 4.8l0.5 12.1q0 0.2-0.1 0.3 0 0.1-0.2 0.2-0.1 0-0.3 0-0.2 0-0.3 0-0.1-0.1-0.2-0.2-0.1-0.1-0.1-0.3l-0.1-2q-0.6 1.3-1.4 2.1-0.8 0.7-1.7 0.7-0.8 0-1.5-0.4-0.6-0.3-1.1-1-0.5-0.7-0.8-1.7-0.3-0.9-0.3-2.1-0.1-1.5 0.2-2.6 0.3-1.1 0.9-1.9 0.7-0.7 1.6-1.1 0.8-0.4 1.9-0.4h1.7l-0.1-1.5q0-1.2-0.2-2-0.2-0.9-0.5-1.5-0.4-0.6-0.9-0.9-0.5-0.3-1.2-0.3-0.6 0-1.2 0.3-0.5 0.3-0.9 0.7-0.4 0.3-0.6 0.6-0.3 0.3-0.4 0.3-0.1 0-0.1 0-0.1-0.1-0.1-0.2-0.1-0.1-0.1-0.3 0-0.1 0-0.4-0.1-0.4 0-0.6 0-0.3 0.1-0.5 0.2-0.3 0.5-0.6 0.4-0.4 0.8-0.6 0.5-0.3 1-0.5 0.5-0.2 1.1-0.2 1 0 1.8 0.4 0.7 0.5 1.2 1.3 0.5 0.8 0.7 2 0.3 1.2 0.4 2.8zm-1 7.9l-0.2-4.2h-1.9q-0.8 0-1.4 0.3-0.6 0.2-1 0.7-0.4 0.5-0.6 1.2-0.1 0.7-0.1 1.6 0.1 1.5 0.7 2.5 0.6 0.9 1.6 0.9 0.8 0 1.5-0.8 0.6-0.7 1.4-2.2zm16-6.8l0.4 10.9q0 0.1 0 0.2 0 0.1-0.1 0.2-0.1 0-0.2 0.1-0.1 0-0.3 0-0.2 0-0.4 0-0.1-0.1-0.2-0.1 0-0.1-0.1-0.2 0-0.1 0-0.2l-0.5-10.6q-0.1-1.7-0.2-2.7-0.2-1.1-0.6-1.8-0.3-0.8-0.8-1.1-0.4-0.5-1.1-0.4-0.7 0-1.5 0.9-0.7 1-1.5 2.9l0.6 12.8q0 0.2-0.1 0.3 0 0.1-0.1 0.1 0 0.1-0.2 0.1-0.1 0.1-0.3 0.1-0.2 0-0.3-0.1-0.1 0-0.2-0.1-0.1 0-0.1-0.1-0.1-0.1-0.1-0.2l-0.8-18q0-0.1 0-0.2 0.1-0.1 0.2-0.1 0-0.1 0.1-0.1 0.2-0.1 0.4-0.1 0.1 0 0.3 0.1 0.1 0 0.2 0.1 0 0 0.1 0.1 0 0.1 0 0.2l0.1 2.6q0.8-1.8 1.6-2.5 0.9-0.8 1.7-0.8 1 0 1.7 0.5 0.7 0.6 1.2 1.6 0.5 1.1 0.7 2.4 0.3 1.3 0.4 3.2zm15.4-15.9l1.2 26.7q0 0.1-0.1 0.2 0 0.1-0.1 0.1 0 0.1-0.2 0.1-0.1 0.1-0.3 0.1-0.2 0-0.3-0.1-0.2 0-0.2-0.1-0.1 0-0.2-0.1 0-0.1 0-0.2l-1.2-26.7q0-0.1 0-0.2 0.1-0.1 0.2-0.2 0-0.1 0.2-0.1 0.1 0 0.3 0 0.2 0 0.3 0 0.1 0 0.2 0.1 0.1 0.1 0.1 0.2 0.1 0.1 0.1 0.2zm14.5 14.4l0.5 12.2q0 0.1-0.1 0.3 0 0.1-0.1 0.1-0.2 0.1-0.4 0.1-0.2 0-0.3-0.1-0.1 0-0.2-0.1-0.1-0.1-0.1-0.3l-0.1-2q-0.6 1.3-1.4 2-0.8 0.7-1.7 0.7-0.8 0-1.5-0.3-0.6-0.4-1.1-1.1-0.5-0.7-0.7-1.6-0.3-1-0.4-2.2 0-1.5 0.3-2.6 0.3-1.1 0.9-1.8 0.6-0.8 1.5-1.1 0.9-0.4 2-0.4h1.6l-0.1-1.6q0-1.1-0.2-2-0.2-0.9-0.5-1.5-0.3-0.6-0.8-0.9-0.5-0.3-1.2-0.3-0.7 0.1-1.2 0.4-0.6 0.2-1 0.6-0.4 0.4-0.6 0.7-0.3 0.2-0.4 0.2 0 0-0.1 0-0.1 0-0.1-0.1 0-0.2-0.1-0.3 0-0.2 0-0.4 0-0.4 0-0.7 0-0.2 0.1-0.5 0.2-0.2 0.5-0.6 0.4-0.3 0.8-0.6 0.5-0.3 1-0.5 0.6-0.2 1.1-0.2 1.1 0 1.8 0.5 0.7 0.4 1.2 1.2 0.5 0.9 0.8 2.1 0.2 1.2 0.3 2.7zm-1 7.9l-0.2-4.2h-1.9q-0.8 0-1.4 0.3-0.6 0.3-1 0.8-0.4 0.4-0.5 1.1-0.2 0.7-0.2 1.6 0.1 1.6 0.7 2.5 0.6 0.9 1.6 0.9 0.8 0 1.5-0.7 0.7-0.8 1.4-2.3zm30.4-7.2l0.5 11.2q0 0.1 0 0.2-0.1 0.1-0.1 0.2-0.1 0.1-0.2 0.1-0.2 0-0.4 0-0.2 0-0.3 0-0.1 0-0.2-0.1-0.1-0.1-0.1-0.2 0-0.1-0.1-0.2l-0.4-11q-0.1-1.3-0.3-2.3-0.1-1-0.5-1.8-0.3-0.7-0.7-1.1-0.5-0.4-1-0.4-0.7 0-1.4 1-0.7 0.9-1.5 2.8l0.6 12.9q0 0.1-0.1 0.2 0 0.1-0.1 0.1 0 0.1-0.2 0.1-0.1 0.1-0.3 0.1-0.2 0-0.3 0-0.1-0.1-0.2-0.1-0.1-0.1-0.1-0.2-0.1-0.1-0.1-0.2l-0.5-11.1q0-1.2-0.2-2.2-0.2-1.1-0.5-1.8-0.3-0.8-0.8-1.2-0.4-0.4-1-0.4-0.7 0-1.4 1-0.7 1-1.4 2.9l0.5 12.8q0 0.1 0 0.2 0 0.1-0.1 0.2-0.1 0.1-0.2 0.1-0.1 0-0.3 0-0.2 0-0.4 0-0.1 0-0.2-0.1 0-0.1-0.1-0.2 0 0 0-0.2l-0.8-17.9q0-0.1 0-0.2 0-0.1 0.1-0.2 0.1 0 0.2-0.1 0.1 0 0.3 0 0.2 0 0.3 0 0.2 0 0.2 0.1 0.1 0.1 0.1 0.2 0.1 0.1 0.1 0.2l0.1 2.5q0.8-1.7 1.6-2.5 0.7-0.8 1.5-0.8 0.6 0 1.2 0.3 0.5 0.3 0.9 0.8 0.4 0.4 0.7 1.1 0.3 0.7 0.5 1.5 0.5-1.1 0.9-1.7 0.5-0.8 0.9-1.2 0.4-0.4 0.8-0.6 0.3-0.2 0.7-0.2 1 0 1.7 0.6 0.7 0.6 1.1 1.6 0.5 1 0.7 2.3 0.2 1.4 0.3 2.9zm13.8-1l0.5 12.1q0 0.2-0.1 0.3 0 0.1-0.1 0.2-0.2 0-0.4 0-0.1 0-0.3 0-0.1-0.1-0.2-0.2-0.1-0.1-0.1-0.3l-0.1-2q-0.6 1.3-1.4 2-0.8 0.8-1.7 0.8-0.8 0-1.5-0.4-0.6-0.3-1.1-1-0.5-0.7-0.7-1.7-0.3-0.9-0.4-2.1 0-1.5 0.3-2.6 0.3-1.1 0.9-1.9 0.6-0.7 1.5-1.1 0.9-0.4 2-0.4h1.6l-0.1-1.5q0-1.2-0.2-2-0.2-0.9-0.5-1.5-0.3-0.6-0.8-0.9-0.5-0.3-1.2-0.3-0.7 0-1.2 0.3-0.6 0.3-1 0.7-0.4 0.3-0.6 0.6-0.3 0.3-0.4 0.3 0 0-0.1 0-0.1-0.1-0.1-0.2 0-0.1-0.1-0.3 0-0.1 0-0.4 0-0.4 0-0.6 0-0.3 0.1-0.5 0.2-0.3 0.5-0.6 0.4-0.4 0.8-0.6 0.5-0.3 1-0.5 0.6-0.2 1.1-0.2 1.1 0 1.8 0.4 0.7 0.5 1.2 1.3 0.5 0.8 0.8 2 0.2 1.2 0.3 2.8zm-1 7.9l-0.2-4.2h-1.9q-0.8 0-1.4 0.2-0.6 0.3-1 0.8-0.4 0.5-0.5 1.2-0.2 0.7-0.2 1.6 0.1 1.5 0.7 2.5 0.6 0.9 1.6 0.9 0.8-0.1 1.5-0.8 0.7-0.7 1.4-2.2zm14.7-13.5l-3 18-1.1 6.7q-0.1 0.3-0.3 0.4-0.1 0.2-0.5 0.2-0.2 0-0.4-0.1-0.1 0-0.2-0.1-0.1-0.1-0.1-0.3 0-0.2 0-0.4l1.2-6.4q-0.1 0-0.2-0.2 0-0.1-0.1-0.2l-4.5-17.5q0-0.3 0-0.4 0-0.2 0-0.3 0.1-0.1 0.2-0.1 0.2-0.1 0.4-0.1 0.2 0 0.4 0.1 0.1 0 0.2 0 0.1 0.1 0.2 0.2 0 0.1 0 0.2l3.9 15.7 0.1-0.1 2.4-15.6q0.1-0.3 0.2-0.4 0.1-0.1 0.2-0.1 0.2 0 0.4 0 0.2 0 0.4 0 0.1 0 0.2 0.1 0.1 0.1 0.1 0.3 0 0.2-0.1 0.4zm14.5 8.3q0.1 2.2-0.1 4-0.3 1.8-0.9 3.1-0.5 1.3-1.4 2.1-0.9 0.7-2.2 0.8-1.2 0-2.1-0.7-0.9-0.7-1.6-1.9-0.7-1.2-1-3-0.4-1.7-0.5-4-0.1-2.1 0.1-3.9 0.3-1.8 0.8-3.1 0.6-1.3 1.5-2.1 0.9-0.7 2.2-0.7 1.2 0 2.1 0.6 0.9 0.6 1.6 1.9 0.6 1.2 1 3 0.4 1.7 0.5 3.9zm-1.4 0.3q-0.1-1.6-0.3-3-0.2-1.3-0.7-2.4-0.4-1-1.1-1.7-0.7-0.6-1.7-0.6-0.9 0-1.6 0.6-0.6 0.6-1 1.6-0.4 1-0.5 2.4-0.2 1.4-0.1 3 0.1 1.6 0.3 3 0.2 1.3 0.7 2.4 0.4 1 1.1 1.7 0.7 0.6 1.7 0.6 0.9-0.1 1.6-0.6 0.6-0.6 1-1.6 0.4-1 0.5-2.4 0.2-1.4 0.1-3zm12.7-8.2q0 0.3 0 0.5 0 0.2-0.1 0.3 0 0.1 0 0.2 0 0.1-0.1 0.1-0.1 0-0.3-0.1-0.1-0.1-0.3-0.2-0.2-0.1-0.4-0.2-0.2-0.1-0.5-0.1-0.3 0-0.6 0.3-0.2 0.2-0.5 0.7-0.3 0.5-0.7 1.4-0.3 0.8-0.7 2l0.6 12.1q0 0.1 0 0.2-0.1 0.1-0.2 0.2 0 0.1-0.2 0.1-0.1 0-0.3 0-0.2 0-0.3 0-0.1 0-0.2-0.1-0.1-0.1-0.1-0.2-0.1-0.1-0.1-0.2l-0.8-17.9q0-0.1 0.1-0.2 0-0.1 0.1-0.2 0 0 0.1-0.1 0.2 0 0.4 0 0.2 0 0.3 0 0.1 0 0.2 0.1 0 0.1 0.1 0.2 0 0.1 0 0.2l0.1 2.8q0.4-1.1 0.8-1.8 0.3-0.7 0.6-1.1 0.4-0.4 0.7-0.5 0.3-0.2 0.6-0.2 0.2 0 0.4 0.1 0.2 0 0.4 0.1 0.2 0.1 0.4 0.2 0.2 0.1 0.3 0.2 0 0 0.1 0.1 0 0.1 0 0.2 0 0.1 0 0.3 0 0.2 0.1 0.5z"/>
			<path id="cantidad de fallecidos por torna" class="s1" aria-label="cantidad de fallecidos por tornados"  d="m1194.5 944.8q0 0.2 0 0.4 0 0.2 0 0.3-0.1 0.2-0.1 0.3 0 0.1-0.2 0.3-0.1 0.3-0.4 0.7-0.4 0.4-0.8 0.7-0.4 0.3-0.9 0.5-0.5 0.2-1 0.2-1.1 0-1.9-0.6-0.9-0.6-1.5-1.8-0.6-1.3-0.9-3-0.4-1.8-0.5-4.1-0.1-2.6 0.1-4.5 0.3-1.9 0.9-3.1 0.6-1.1 1.4-1.7 0.8-0.6 1.7-0.6 0.5 0 1 0.2 0.5 0.1 0.9 0.4 0.4 0.3 0.7 0.6 0.3 0.4 0.5 0.6 0.1 0.3 0.2 0.4 0 0.1 0.1 0.3 0 0.2 0 0.4 0.1 0.1 0.1 0.4 0 0.6-0.1 0.8-0.1 0.2-0.2 0.2-0.1 0-0.4-0.3-0.2-0.4-0.6-0.8-0.4-0.4-0.9-0.8-0.6-0.3-1.3-0.3-1.5 0-2.2 2-0.7 2-0.5 5.7 0.1 1.9 0.3 3.3 0.3 1.4 0.8 2.3 0.4 1 1 1.4 0.6 0.5 1.3 0.5 0.7 0 1.2-0.4 0.5-0.4 0.9-0.8 0.4-0.5 0.6-0.9 0.2-0.3 0.4-0.3 0 0 0.1 0 0 0.1 0.1 0.2 0 0.2 0 0.4 0.1 0.2 0.1 0.5zm12.1-9.6l0.5 12.1q0.1 0.2 0 0.3-0.1 0.1-0.2 0.2-0.1 0-0.3 0.1-0.2 0-0.3-0.1-0.2 0-0.3-0.1 0-0.2-0.1-0.4v-2q-0.7 1.4-1.5 2.1-0.8 0.7-1.7 0.7-0.8 0-1.4-0.3-0.7-0.4-1.2-1.1-0.4-0.7-0.7-1.6-0.3-1-0.3-2.2-0.1-1.5 0.2-2.6 0.3-1.1 0.9-1.8 0.6-0.8 1.5-1.1 0.9-0.4 2-0.4l1.6-0.1v-1.5q-0.1-1.1-0.2-2-0.2-0.9-0.6-1.5-0.3-0.6-0.8-0.9-0.5-0.3-1.2-0.3-0.7 0-1.2 0.3-0.5 0.3-0.9 0.7-0.4 0.3-0.7 0.6-0.2 0.3-0.3 0.3-0.1 0-0.2 0 0-0.1-0.1-0.2 0-0.1 0-0.2-0.1-0.2-0.1-0.5 0-0.4 0-0.6 0.1-0.3 0.2-0.5 0.1-0.3 0.5-0.6 0.3-0.3 0.8-0.6 0.4-0.3 1-0.5 0.5-0.2 1-0.2 1.1 0 1.8 0.4 0.8 0.5 1.3 1.3 0.5 0.8 0.7 2.1 0.2 1.2 0.3 2.7zm-1 7.9l-0.2-4.2h-1.8q-0.9 0-1.5 0.3-0.6 0.2-0.9 0.7-0.4 0.5-0.6 1.2-0.2 0.7-0.1 1.6 0 1.6 0.6 2.5 0.6 0.9 1.7 0.9 0.8 0 1.4-0.7 0.7-0.8 1.4-2.3zm16-6.7l0.5 10.8q0 0.1 0 0.2-0.1 0.1-0.1 0.2-0.1 0-0.2 0.1-0.2 0-0.3 0-0.3 0-0.4 0-0.1 0-0.2-0.1-0.1-0.1-0.1-0.2 0-0.1-0.1-0.2l-0.4-10.6q-0.1-1.7-0.3-2.7-0.2-1.1-0.5-1.8-0.3-0.7-0.8-1.1-0.5-0.4-1.1-0.4-0.8 0-1.5 1-0.8 0.9-1.5 2.8l0.5 12.9q0 0.1 0 0.2 0 0.1-0.1 0.1-0.1 0.1-0.2 0.1-0.1 0.1-0.3 0.1-0.2 0-0.4-0.1-0.1 0-0.2 0 0-0.1-0.1-0.2 0-0.1 0-0.2l-0.8-17.9q0-0.2 0-0.3 0-0.1 0.1-0.1 0.1-0.1 0.2-0.1 0.1-0.1 0.3-0.1 0.2 0 0.3 0.1 0.2 0 0.2 0.1 0.1 0 0.1 0.1 0.1 0.1 0.1 0.2l0.1 2.6q0.8-1.7 1.6-2.5 0.8-0.8 1.7-0.8 1 0 1.7 0.6 0.7 0.6 1.2 1.6 0.4 1 0.7 2.3 0.2 1.4 0.3 3.3zm11.8 9.6q0 0.5 0 0.7 0 0.3-0.1 0.4-0.1 0.2-0.3 0.3-0.1 0.1-0.3 0.2-0.2 0.1-0.5 0.2-0.2 0-0.4 0-0.8 0-1.3-0.3-0.6-0.4-1-1.1-0.3-0.7-0.5-1.8-0.2-1.1-0.3-2.6l-0.5-11.2h-1.5q-0.2 0-0.3-0.2-0.1-0.3-0.1-0.8 0-0.2 0-0.4 0-0.2 0.1-0.3 0-0.1 0-0.2 0.1-0.1 0.2-0.1h1.5l-0.2-4.4q0-0.1 0-0.2 0.1-0.1 0.1-0.2 0.1 0 0.2-0.1 0.2 0 0.4 0 0.2 0 0.3 0 0.1 0.1 0.2 0.1 0.1 0.1 0.1 0.2 0.1 0.1 0.1 0.2l0.2 4.4h2.8q0.1 0 0.1 0 0.1 0.1 0.2 0.2 0 0.2 0 0.4 0.1 0.1 0.1 0.4 0 0.5-0.1 0.7-0.1 0.3-0.2 0.3h-2.8l0.4 10.8q0.1 2.1 0.5 3.1 0.4 1.1 1.3 1.1 0.2 0 0.4-0.1 0.3-0.1 0.4-0.2 0.2-0.1 0.3-0.2 0.1-0.1 0.2-0.1 0.1 0 0.1 0 0.1 0 0.1 0.2 0 0.1 0.1 0.2 0 0.2 0 0.4zm6.2-16.9l0.8 18q0 0.1 0 0.2-0.1 0.1-0.2 0.1 0 0.1-0.2 0.1-0.1 0.1-0.3 0.1-0.2 0-0.3-0.1-0.1 0-0.2-0.1-0.1 0-0.1-0.1-0.1-0.1-0.1-0.2l-0.8-17.9q0-0.2 0.1-0.3 0-0.1 0.1-0.1 0-0.1 0.2-0.1 0.1-0.1 0.3-0.1 0.2 0 0.3 0.1 0.2 0 0.2 0.1 0.1 0 0.1 0.1 0.1 0.1 0.1 0.2zm-0.1-6q0.1 1-0.1 1.3-0.2 0.3-0.7 0.3-0.5 0-0.7-0.3-0.2-0.3-0.2-1.3-0.1-0.9 0.1-1.3 0.2-0.3 0.7-0.3 0.5 0 0.7 0.3 0.2 0.4 0.2 1.3zm14.6-2.7l1.2 26.5q0 0.2 0 0.3 0 0.1-0.1 0.1-0.1 0.1-0.2 0.1-0.1 0.1-0.3 0.1-0.1 0-0.3-0.1-0.1 0-0.2-0.1 0 0-0.1-0.1 0-0.1 0-0.2l-0.1-2.6q-0.8 1.5-1.6 2.4-0.9 0.9-1.9 0.9-1.1 0-1.9-0.7-0.8-0.8-1.4-2.1-0.5-1.2-0.8-3-0.3-1.7-0.4-3.6-0.1-2.3 0.1-4.1 0.2-1.9 0.7-3.2 0.5-1.3 1.3-2 0.8-0.7 1.8-0.7 1 0 1.8 0.7 0.8 0.8 1.6 2.2l-0.5-10.8q0-0.2 0-0.3 0-0.1 0.1-0.1 0.1-0.1 0.2-0.1 0.1-0.1 0.3-0.1 0.2 0 0.4 0.1 0.1 0 0.2 0.1 0.1 0 0.1 0.1 0 0.1 0 0.3zm-0.4 21.4l-0.3-7.8q-0.9-1.8-1.8-2.7-0.8-1-1.7-1-0.7 0.1-1.3 0.7-0.5 0.7-0.8 1.7-0.3 1.1-0.4 2.5-0.1 1.3 0 2.7 0 1.5 0.2 2.9 0.2 1.4 0.6 2.5 0.4 1.1 1 1.8 0.5 0.6 1.3 0.6 0.5 0 0.8-0.2 0.4-0.2 0.8-0.7 0.4-0.4 0.8-1.1 0.4-0.8 0.8-1.9zm14.9-7.1l0.6 12.1q0 0.2-0.1 0.3-0.1 0.1-0.2 0.2-0.1 0-0.3 0.1-0.2 0-0.3-0.1-0.2 0-0.2-0.1-0.1-0.2-0.1-0.4l-0.1-2q-0.7 1.4-1.5 2.1-0.8 0.7-1.6 0.7-0.9 0-1.5-0.3-0.7-0.4-1.1-1.1-0.5-0.7-0.8-1.6-0.3-1-0.3-2.2-0.1-1.5 0.2-2.6 0.3-1.1 0.9-1.8 0.6-0.8 1.5-1.1 0.9-0.4 2-0.4l1.7-0.1-0.1-1.5q-0.1-1.1-0.2-2-0.2-0.9-0.5-1.5-0.4-0.6-0.9-0.9-0.5-0.3-1.2-0.3-0.6 0-1.2 0.3-0.5 0.3-0.9 0.7-0.4 0.3-0.7 0.6-0.2 0.3-0.3 0.3-0.1 0-0.1 0-0.1-0.1-0.1-0.2-0.1-0.1-0.1-0.2 0-0.2 0-0.5-0.1-0.4 0-0.6 0-0.3 0.1-0.5 0.1-0.3 0.5-0.6 0.3-0.3 0.8-0.6 0.5-0.3 1-0.5 0.5-0.2 1.1-0.2 1 0 1.8 0.5 0.7 0.4 1.2 1.2 0.5 0.8 0.7 2.1 0.3 1.2 0.3 2.7zm-1 7.9l-0.1-4.2h-1.9q-0.8 0-1.4 0.3-0.6 0.2-1 0.7-0.4 0.5-0.6 1.2-0.1 0.7-0.1 1.6 0.1 1.6 0.7 2.5 0.6 0.9 1.6 0.9 0.8 0 1.5-0.7 0.6-0.8 1.3-2.3zm15.3-22.5l1.2 26.6q0 0.2 0 0.2-0.1 0.1-0.1 0.2-0.1 0.1-0.2 0.1-0.1 0-0.3 0-0.2 0-0.3 0-0.1 0-0.2-0.1-0.1 0-0.1-0.1-0.1-0.1-0.1-0.3l-0.1-2.6q-0.7 1.6-1.6 2.5-0.8 0.9-1.8 0.9-1.1 0-2-0.8-0.8-0.7-1.3-2-0.6-1.3-0.9-3-0.3-1.7-0.4-3.7-0.1-2.2 0.1-4.1 0.2-1.8 0.7-3.1 0.5-1.3 1.3-2 0.8-0.7 1.9-0.7 0.9 0 1.7 0.7 0.8 0.7 1.6 2.1l-0.4-10.8q0-0.1 0-0.2 0-0.1 0.1-0.1 0.1-0.1 0.2-0.1 0.1-0.1 0.3-0.1 0.2 0 0.3 0 0.2 0.1 0.2 0.1 0.1 0.1 0.2 0.2 0 0.1 0 0.2zm-0.4 21.5l-0.3-7.8q-1-1.8-1.8-2.7-0.8-1-1.7-1-0.8 0-1.3 0.7-0.5 0.6-0.8 1.7-0.3 1.1-0.4 2.4-0.1 1.4-0.1 2.8 0.1 1.4 0.3 2.9 0.2 1.4 0.6 2.5 0.3 1.1 0.9 1.7 0.6 0.7 1.4 0.7 0.4 0 0.8-0.2 0.4-0.2 0.8-0.7 0.3-0.5 0.7-1.2 0.5-0.7 0.9-1.8zm23.5-21.7l1.2 26.6q0 0.2-0.1 0.3 0 0.1-0.1 0.1 0 0.1-0.1 0.1-0.1 0-0.3 0-0.2 0-0.3 0-0.1 0-0.2-0.1-0.1 0-0.1-0.1-0.1-0.1-0.1-0.3l-0.1-2.5q-0.7 1.5-1.6 2.4-0.8 0.9-1.8 0.9-1.1 0-2-0.7-0.8-0.8-1.3-2.1-0.6-1.3-0.9-3-0.3-1.7-0.4-3.7-0.1-2.2 0.1-4.1 0.2-1.8 0.7-3.1 0.5-1.3 1.3-2 0.8-0.7 1.9-0.7 0.9 0 1.7 0.7 0.8 0.7 1.6 2.1l-0.5-10.8q0-0.1 0.1-0.2 0-0.1 0.1-0.1 0-0.1 0.2-0.1 0.1-0.1 0.3-0.1 0.2 0 0.3 0.1 0.2 0 0.2 0.1 0.1 0 0.1 0.1 0.1 0.1 0.1 0.2zm-0.4 21.5l-0.4-7.8q-0.9-1.8-1.7-2.7-0.8-1-1.7-1-0.8 0-1.3 0.7-0.5 0.7-0.8 1.7-0.3 1.1-0.4 2.4-0.1 1.4-0.1 2.8 0.1 1.5 0.3 2.9 0.2 1.4 0.6 2.5 0.3 1.1 0.9 1.7 0.6 0.7 1.4 0.7 0.4 0 0.8-0.2 0.4-0.2 0.7-0.7 0.4-0.4 0.8-1.2 0.4-0.7 0.9-1.8zm16.1-5.4l0.1 0.5q0 0.7-0.2 1-0.2 0.3-0.4 0.3h-7q0.1 1.7 0.3 3 0.3 1.4 0.7 2.4 0.5 0.9 1.2 1.4 0.7 0.5 1.7 0.5 0.8 0 1.3-0.2 0.6-0.2 1-0.5 0.4-0.3 0.6-0.5 0.3-0.2 0.4-0.2 0.1 0 0.1 0 0.1 0.1 0.1 0.2 0.1 0.2 0.1 0.3 0 0.2 0 0.5 0 0.2 0 0.3 0 0.1 0 0.3 0 0.1 0 0.2-0.1 0.1-0.1 0.2-0.1 0.1-0.3 0.3-0.3 0.3-0.8 0.5-0.5 0.3-1.1 0.5-0.6 0.2-1.3 0.2-1.2 0-2.2-0.6-0.9-0.7-1.6-1.9-0.7-1.2-1.1-3-0.4-1.8-0.5-4.2-0.1-2.2 0.2-4 0.2-1.8 0.8-3.1 0.6-1.3 1.4-1.9 0.9-0.7 2-0.7 1.1 0 2 0.6 0.8 0.7 1.4 1.9 0.6 1.1 0.9 2.6 0.3 1.5 0.3 3.1zm-7.6-0.1l6.2-0.1q0-2.8-0.9-4.4-0.9-1.6-2.3-1.6-0.8 0-1.4 0.5-0.5 0.5-0.9 1.4-0.4 0.8-0.5 1.9-0.2 1.1-0.2 2.3zm26.4-15.2q0 0.3 0 0.4 0 0.2 0 0.3 0 0.1-0.1 0.1 0 0.1-0.1 0.1 0 0-0.2-0.1-0.1-0.1-0.3-0.2-0.2-0.2-0.5-0.2-0.2-0.1-0.5-0.1-0.5 0-0.8 0.2-0.4 0.3-0.5 0.9-0.2 0.6-0.3 1.5 0 0.9 0.1 2.2l0.1 2.1h2.5q0 0 0.1 0.1 0.1 0 0.1 0.2 0.1 0.1 0.1 0.3 0 0.2 0 0.4 0.1 0.5 0 0.8-0.1 0.2-0.2 0.2h-2.6l0.8 16.4q0 0.1-0.1 0.2 0 0.1-0.1 0.2 0 0-0.2 0.1-0.1 0-0.3 0-0.2 0-0.3 0-0.2-0.1-0.2-0.1-0.1-0.1-0.2-0.2 0-0.1 0-0.2l-0.7-16.3h-1.5q-0.2 0-0.3-0.3-0.1-0.2-0.1-0.7 0-0.3 0-0.5 0-0.2 0-0.3 0.1-0.1 0.1-0.2 0.1 0 0.2 0h1.5l-0.1-2.1q-0.1-1.9 0.1-3.2 0.1-1.3 0.4-2.2 0.4-0.8 1-1.2 0.6-0.4 1.3-0.4 0.4 0 0.8 0.2 0.4 0.1 0.5 0.2 0.2 0.2 0.3 0.3 0.1 0.1 0.1 0.3 0.1 0.1 0.1 0.3 0 0.2 0 0.5zm11.8 13.3l0.5 12.2q0.1 0.2 0 0.3-0.1 0.1-0.2 0.1-0.1 0.1-0.3 0.1-0.2 0-0.4-0.1-0.1 0-0.2-0.1 0-0.1-0.1-0.3v-2q-0.7 1.3-1.5 2-0.8 0.7-1.7 0.7-0.8 0-1.4-0.3-0.7-0.4-1.2-1.1-0.4-0.6-0.7-1.6-0.3-1-0.3-2.2-0.1-1.5 0.2-2.6 0.3-1.1 0.9-1.8 0.6-0.8 1.5-1.1 0.9-0.4 2-0.4h1.6v-1.6q-0.1-1.1-0.3-2-0.1-0.9-0.5-1.5-0.3-0.6-0.8-0.9-0.5-0.2-1.2-0.2-0.7 0-1.2 0.3-0.5 0.2-0.9 0.6-0.4 0.4-0.7 0.7-0.2 0.2-0.3 0.2-0.1 0-0.2 0 0 0-0.1-0.1 0-0.2 0-0.3-0.1-0.2-0.1-0.4 0-0.4 0-0.7 0.1-0.2 0.2-0.5 0.1-0.2 0.5-0.6 0.3-0.3 0.8-0.6 0.4-0.3 1-0.5 0.5-0.2 1-0.2 1.1 0 1.8 0.5 0.8 0.4 1.3 1.2 0.5 0.9 0.7 2.1 0.2 1.2 0.3 2.7zm-1 7.9l-0.2-4.2h-1.8q-0.9 0-1.5 0.3-0.6 0.3-0.9 0.8-0.4 0.5-0.6 1.2-0.2 0.6-0.1 1.5 0 1.6 0.6 2.5 0.6 0.9 1.7 0.9 0.8 0 1.4-0.7 0.7-0.8 1.4-2.3zm8.4-22.5l1.1 26.7q0 0.1 0 0.2 0 0.1-0.1 0.2-0.1 0-0.2 0.1-0.1 0-0.3 0-0.2 0-0.4 0-0.1-0.1-0.2-0.1 0-0.1-0.1-0.2 0-0.1 0-0.2l-1.2-26.7q0-0.1 0-0.2 0-0.1 0.1-0.2 0.1 0 0.2-0.1 0.2 0 0.4 0 0.2 0 0.3 0 0.1 0 0.2 0.1 0.1 0.1 0.1 0.2 0 0.1 0.1 0.2zm8-0.1l1.1 26.7q0.1 0.1 0 0.2 0 0.1-0.1 0.2-0.1 0.1-0.2 0.1-0.1 0-0.3 0-0.2 0.1-0.3 0-0.2 0-0.2-0.1-0.1 0-0.2-0.1 0-0.1 0-0.3l-1.2-26.7q0-0.1 0-0.2 0.1-0.1 0.1-0.1 0.1-0.1 0.2-0.1 0.2-0.1 0.4-0.1 0.2 0 0.3 0.1 0.1 0 0.2 0.1 0.1 0 0.1 0.1 0.1 0.1 0.1 0.2zm15.7 16.3v0.4q0.1 0.7-0.1 1-0.2 0.3-0.4 0.3h-7q0 1.7 0.3 3 0.2 1.4 0.7 2.4 0.5 0.9 1.2 1.4 0.7 0.5 1.7 0.5 0.7 0 1.3-0.2 0.5-0.2 0.9-0.5 0.4-0.3 0.7-0.5 0.3-0.2 0.4-0.2 0 0 0.1 0 0.1 0.1 0.1 0.2 0 0.2 0.1 0.4 0 0.2 0 0.4 0 0.2 0 0.3 0 0.1 0 0.3 0 0.1-0.1 0.2 0 0.1 0 0.2-0.1 0.1-0.4 0.3-0.3 0.3-0.7 0.5-0.5 0.3-1.1 0.5-0.6 0.2-1.4 0.2-1.1 0-2.1-0.6-0.9-0.6-1.6-1.9-0.7-1.2-1.1-3-0.4-1.8-0.5-4.1-0.1-2.3 0.2-4.1 0.2-1.8 0.8-3.1 0.6-1.3 1.4-1.9 0.9-0.7 1.9-0.7 1.2 0 2 0.6 0.9 0.7 1.4 1.9 0.6 1.1 0.9 2.6 0.3 1.5 0.4 3.2zm-7.6-0.2l6.2-0.1q-0.1-2.8-0.9-4.4-0.9-1.6-2.4-1.6-0.7 0-1.3 0.5-0.6 0.5-0.9 1.4-0.4 0.8-0.6 1.9-0.1 1.1-0.1 2.3zm21.1 7.7q0 0.3 0 0.5 0 0.2 0 0.3 0 0.1-0.1 0.3 0 0.1-0.1 0.3-0.2 0.3-0.5 0.7-0.3 0.4-0.7 0.7-0.4 0.3-0.9 0.5-0.5 0.2-1.1 0.2-1 0-1.9-0.6-0.8-0.7-1.4-1.9-0.6-1.2-1-2.9-0.4-1.8-0.5-4.1-0.1-2.7 0.2-4.5 0.3-1.9 0.8-3.1 0.6-1.2 1.4-1.7 0.8-0.6 1.8-0.6 0.5 0 1 0.1 0.4 0.2 0.8 0.5 0.4 0.3 0.7 0.6 0.4 0.4 0.5 0.6 0.2 0.3 0.2 0.4 0.1 0.1 0.1 0.3 0.1 0.1 0.1 0.3 0 0.2 0 0.5 0 0.5-0.1 0.8 0 0.2-0.1 0.2-0.2 0-0.5-0.4-0.2-0.3-0.6-0.7-0.4-0.5-0.9-0.8-0.5-0.4-1.2-0.4-1.5 0-2.2 2-0.7 2-0.6 5.8 0.1 1.8 0.4 3.3 0.3 1.4 0.7 2.3 0.5 0.9 1.1 1.4 0.5 0.5 1.3 0.5 0.7 0 1.2-0.4 0.5-0.4 0.8-0.9 0.4-0.4 0.6-0.8 0.3-0.4 0.4-0.4 0.1 0 0.1 0.1 0.1 0.1 0.1 0.2 0.1 0.2 0.1 0.4 0 0.2 0 0.4zm6.3-15.3l0.8 17.9q0 0.2 0 0.3-0.1 0.1-0.1 0.1-0.1 0.1-0.2 0.1-0.2 0.1-0.4 0.1-0.2 0-0.3-0.1-0.1 0-0.2-0.1-0.1 0-0.1-0.1-0.1-0.1-0.1-0.2l-0.8-18q0-0.1 0.1-0.2 0-0.1 0.1-0.1 0-0.1 0.2-0.1 0.1-0.1 0.3-0.1 0.2 0 0.3 0.1 0.2 0 0.2 0.1 0.1 0 0.2 0.1 0 0.1 0 0.2zm-0.1-6q0.1 0.9-0.1 1.3-0.2 0.3-0.7 0.3-0.5 0-0.7-0.3-0.2-0.3-0.2-1.3-0.1-0.9 0.1-1.3 0.2-0.3 0.7-0.3 0.5 0 0.7 0.3 0.2 0.3 0.2 1.3zm14.7-2.8l1.1 26.6q0 0.2 0 0.3 0 0.1-0.1 0.1-0.1 0.1-0.2 0.1-0.1 0-0.3 0-0.1 0-0.3 0-0.1 0-0.2-0.1 0 0-0.1-0.1 0-0.1 0-0.3l-0.1-2.5q-0.8 1.5-1.6 2.4-0.9 0.9-1.9 0.9-1.1 0-1.9-0.7-0.8-0.8-1.4-2.1-0.5-1.3-0.8-3-0.3-1.7-0.4-3.7-0.1-2.2 0.1-4.1 0.2-1.8 0.7-3.1 0.5-1.3 1.3-2 0.8-0.7 1.8-0.7 1 0 1.8 0.7 0.8 0.7 1.6 2.1l-0.5-10.8q0-0.1 0-0.2 0-0.1 0.1-0.1 0.1-0.1 0.2-0.1 0.2-0.1 0.3-0.1 0.3 0 0.4 0.1 0.1 0 0.2 0.1 0.1 0 0.1 0.1 0 0.1 0.1 0.2zm-0.5 21.5l-0.3-7.8q-0.9-1.8-1.8-2.7-0.8-1-1.6-1-0.8 0-1.4 0.7-0.5 0.7-0.8 1.7-0.3 1.1-0.4 2.4-0.1 1.4 0 2.8 0 1.5 0.2 2.9 0.2 1.4 0.6 2.5 0.4 1.1 1 1.7 0.5 0.7 1.4 0.7 0.4 0 0.7-0.2 0.4-0.2 0.8-0.7 0.4-0.4 0.8-1.2 0.4-0.7 0.8-1.8zm17-4.1q0.1 2.1-0.2 3.9-0.2 1.8-0.8 3.1-0.6 1.4-1.5 2.1-0.9 0.8-2.1 0.8-1.2 0-2.1-0.7-1-0.6-1.6-1.9-0.7-1.2-1.1-3-0.3-1.7-0.4-3.9-0.1-2.2 0.1-4 0.2-1.8 0.8-3.1 0.6-1.3 1.5-2.1 0.9-0.7 2.1-0.7 1.2 0 2.2 0.6 0.9 0.7 1.6 1.9 0.6 1.2 1 3 0.4 1.8 0.5 4zm-1.4 0.2q-0.1-1.5-0.3-2.9-0.3-1.4-0.7-2.5-0.5-1-1.2-1.6-0.7-0.7-1.6-0.7-1 0.1-1.6 0.6-0.7 0.6-1 1.6-0.4 1.1-0.6 2.4-0.1 1.4 0 3 0 1.6 0.3 3 0.2 1.4 0.6 2.4 0.5 1.1 1.2 1.7 0.7 0.6 1.7 0.6 0.9 0 1.5-0.6 0.7-0.6 1.1-1.6 0.3-1 0.5-2.4 0.1-1.4 0.1-3zm13.5 4q0.1 1.3-0.2 2.4-0.2 1-0.7 1.7-0.4 0.7-1.1 1.1-0.7 0.4-1.6 0.4-0.5 0-1-0.2-0.4-0.1-0.8-0.3-0.4-0.3-0.7-0.5-0.3-0.3-0.4-0.5-0.2-0.2-0.2-0.5-0.1-0.3-0.1-0.8 0-0.2 0-0.4 0-0.2 0-0.4 0.1-0.1 0.1-0.2 0.1 0 0.1 0 0.1 0 0.4 0.2 0.2 0.3 0.6 0.7 0.4 0.3 0.9 0.5 0.5 0.3 1.1 0.3 0.6 0 1-0.2 0.4-0.2 0.7-0.6 0.3-0.4 0.5-1 0.1-0.6 0.1-1.5-0.1-0.8-0.3-1.4-0.3-0.6-0.7-1-0.3-0.4-0.8-0.7-0.5-0.3-1-0.7-0.5-0.3-1-0.7-0.5-0.5-0.9-1-0.4-0.6-0.7-1.5-0.2-0.8-0.3-2 0-0.9 0.2-1.8 0.1-0.9 0.5-1.6 0.4-0.7 1-1.2 0.7-0.4 1.6-0.4 0.4 0 0.8 0.1 0.3 0.1 0.7 0.3 0.3 0.1 0.5 0.4 0.3 0.1 0.4 0.3 0.1 0.2 0.1 0.3 0.1 0.1 0.1 0.2 0 0.1 0.1 0.3 0 0.2 0 0.4 0 0.2 0 0.4 0 0.2 0 0.3-0.1 0.2-0.1 0.3-0.1 0-0.1 0-0.1 0-0.3-0.2-0.2-0.2-0.5-0.5-0.3-0.2-0.7-0.4-0.5-0.2-1-0.2-0.5 0-0.9 0.2-0.4 0.2-0.6 0.6-0.3 0.4-0.4 0.9-0.1 0.6-0.1 1.2 0.1 0.9 0.3 1.5 0.3 0.6 0.7 1 0.4 0.4 0.8 0.8 0.5 0.3 1 0.6 0.6 0.4 1 0.8 0.5 0.4 0.9 0.9 0.4 0.6 0.7 1.4 0.3 0.8 0.3 1.9zm22.7-4.6q0.1 2.3-0.1 4.1-0.2 1.9-0.7 3.2-0.5 1.3-1.3 2-0.8 0.7-1.8 0.7-0.5 0-0.9-0.2-0.4-0.1-0.8-0.5-0.4-0.3-0.8-0.9-0.4-0.5-0.8-1.3l0.4 9.3q0 0.1-0.1 0.2 0 0.1-0.1 0.2 0 0-0.2 0.1-0.1 0-0.3 0-0.2 0-0.3 0-0.1 0-0.2-0.1-0.1-0.1-0.1-0.2-0.1-0.1-0.1-0.2l-1.1-25q0-0.2 0-0.3 0.1-0.1 0.1-0.1 0.1-0.1 0.2-0.1 0.1 0 0.3 0 0.2 0 0.3 0 0.1 0 0.2 0.1 0.1 0 0.1 0.1 0 0.1 0.1 0.3l0.1 2.6q0.4-0.9 0.8-1.5 0.4-0.7 0.8-1.1 0.4-0.4 0.9-0.6 0.4-0.2 0.9-0.2 1.1 0 2 0.7 0.8 0.8 1.3 2 0.6 1.3 0.9 3.1 0.3 1.7 0.3 3.6zm-1.4 0.4q0-1.5-0.2-2.9-0.2-1.4-0.6-2.5-0.4-1.1-0.9-1.7-0.6-0.7-1.4-0.7-0.4 0-0.8 0.2-0.4 0.2-0.8 0.7-0.4 0.4-0.8 1.2-0.4 0.7-0.8 1.8l0.3 7.8q1 1.8 1.8 2.7 0.8 1 1.6 1 0.8 0 1.4-0.7 0.5-0.7 0.8-1.7 0.3-1.1 0.4-2.5 0.1-1.4 0-2.7zm16.5-0.4q0.1 2.1-0.1 3.9-0.3 1.8-0.8 3.1-0.6 1.4-1.5 2.1-0.9 0.8-2.2 0.8-1.2 0-2.1-0.7-0.9-0.6-1.6-1.9-0.6-1.2-1-3-0.4-1.7-0.5-3.9-0.1-2.2 0.1-4 0.3-1.8 0.8-3.1 0.6-1.3 1.5-2.1 0.9-0.7 2.2-0.7 1.2 0 2.1 0.6 0.9 0.7 1.6 1.9 0.7 1.2 1 3 0.4 1.8 0.5 4zm-1.4 0.2q-0.1-1.5-0.3-2.9-0.2-1.4-0.7-2.5-0.4-1-1.1-1.6-0.7-0.7-1.7-0.7-0.9 0.1-1.6 0.6-0.6 0.6-1 1.6-0.4 1.1-0.5 2.4-0.1 1.4-0.1 3 0.1 1.6 0.3 3 0.3 1.4 0.7 2.4 0.4 1.1 1.1 1.7 0.7 0.6 1.7 0.6 0.9 0 1.6-0.6 0.6-0.6 1-1.6 0.4-1 0.5-2.4 0.2-1.4 0.1-3zm12.7-8.2q0 0.3 0 0.5 0 0.2 0 0.3-0.1 0.2-0.1 0.2 0 0.1-0.1 0.1-0.1 0-0.2-0.1-0.2-0.1-0.4-0.2-0.1-0.1-0.4-0.1-0.2-0.1-0.4-0.1-0.4 0-0.6 0.2-0.3 0.2-0.6 0.7-0.3 0.5-0.6 1.4-0.4 0.8-0.7 2l0.5 12.1q0 0.2 0 0.3-0.1 0.1-0.1 0.1-0.1 0.1-0.2 0.1-0.2 0.1-0.4 0.1-0.2 0-0.3-0.1-0.1 0-0.2-0.1-0.1 0-0.1-0.1 0-0.1-0.1-0.2l-0.7-18q0-0.1 0-0.2 0-0.1 0.1-0.1 0.1-0.1 0.2-0.1 0.1-0.1 0.3-0.1 0.2 0 0.3 0 0.1 0.1 0.2 0.1 0.1 0.1 0.1 0.2 0 0.1 0 0.2l0.2 2.9q0.4-1.2 0.7-1.9 0.3-0.7 0.7-1.1 0.3-0.4 0.6-0.5 0.3-0.1 0.7-0.1 0.1 0 0.3 0 0.2 0 0.4 0.1 0.2 0.1 0.4 0.2 0.2 0.1 0.3 0.2 0 0.1 0.1 0.1 0 0.1 0 0.2 0 0.1 0 0.3 0.1 0.2 0.1 0.5zm19 15.8q0 0.4 0 0.7-0.1 0.2-0.2 0.4 0 0.1-0.2 0.3-0.1 0.1-0.4 0.2-0.2 0.1-0.4 0.1-0.2 0.1-0.5 0.1-0.7 0-1.3-0.4-0.5-0.3-0.9-1-0.4-0.8-0.6-1.9-0.2-1.1-0.2-2.6l-0.5-11.1h-1.5q-0.2 0-0.3-0.3-0.1-0.2-0.1-0.7 0-0.3 0-0.5 0-0.2 0-0.3 0.1-0.1 0.1-0.2 0.1 0 0.2 0h1.5l-0.2-4.4q0-0.2 0-0.3 0-0.1 0.1-0.1 0.1-0.1 0.2-0.1 0.2-0.1 0.3-0.1 0.2 0 0.4 0.1 0.1 0 0.2 0.1 0.1 0 0.1 0.1 0 0.1 0 0.3l0.2 4.3h2.9q0.1 0 0.1 0.1 0.1 0 0.1 0.2 0.1 0.1 0.1 0.3 0 0.2 0.1 0.4 0 0.5-0.1 0.8-0.1 0.2-0.2 0.2h-2.9l0.5 10.9q0.1 2 0.5 3.1 0.4 1.1 1.2 1 0.3 0 0.5-0.1 0.2-0.1 0.4-0.2 0.2-0.1 0.3-0.2 0.1-0.1 0.2-0.1 0.1 0 0.1 0 0 0.1 0.1 0.2 0 0.1 0 0.3 0.1 0.1 0.1 0.4zm14-8.2q0.1 2.1-0.1 3.9-0.2 1.8-0.8 3.2-0.6 1.3-1.5 2.1-0.9 0.7-2.1 0.7-1.2 0-2.2-0.6-0.9-0.7-1.6-1.9-0.6-1.3-1-3-0.4-1.8-0.5-4-0.1-2.1 0.2-3.9 0.2-1.8 0.8-3.1 0.5-1.4 1.4-2.1 1-0.8 2.2-0.8 1.2 0 2.1 0.7 1 0.6 1.6 1.9 0.7 1.2 1.1 2.9 0.3 1.8 0.4 4zm-1.4 0.2q0-1.5-0.3-2.9-0.2-1.4-0.6-2.4-0.5-1.1-1.2-1.7-0.7-0.6-1.7-0.6-0.9 0-1.5 0.6-0.7 0.6-1.1 1.6-0.3 1-0.5 2.4-0.1 1.4-0.1 3 0.1 1.5 0.3 2.9 0.3 1.4 0.7 2.5 0.5 1 1.2 1.6 0.7 0.6 1.6 0.6 1 0 1.6-0.6 0.7-0.6 1-1.6 0.4-1 0.6-2.4 0.1-1.4 0-3zm12.7-8.2q0 0.3 0 0.6 0 0.2 0 0.3 0 0.1-0.1 0.2 0 0-0.1 0-0.1 0.1-0.2 0-0.2-0.1-0.3-0.2-0.2-0.1-0.4-0.2-0.3-0.1-0.5-0.1-0.3 0-0.6 0.2-0.3 0.3-0.6 0.8-0.3 0.5-0.6 1.3-0.3 0.9-0.7 2.1l0.5 12.1q0 0.1 0 0.2 0 0.1-0.1 0.2-0.1 0-0.2 0.1-0.1 0-0.3 0-0.2 0-0.4 0-0.1-0.1-0.2-0.1-0.1-0.1-0.1-0.2 0-0.1 0-0.2l-0.8-17.9q0-0.1 0-0.2 0-0.1 0.1-0.2 0.1-0.1 0.2-0.1 0.1 0 0.3 0 0.2 0 0.3 0 0.1 0 0.2 0.1 0.1 0 0.1 0.1 0.1 0.1 0.1 0.3l0.1 2.8q0.4-1.1 0.7-1.8 0.4-0.7 0.7-1.1 0.3-0.4 0.6-0.5 0.3-0.2 0.7-0.2 0.1 0 0.3 0 0.2 0.1 0.4 0.1 0.3 0.1 0.4 0.2 0.2 0.1 0.3 0.2 0.1 0.1 0.1 0.2 0 0 0 0.2 0.1 0.1 0.1 0.3 0 0.1 0 0.4zm13.8 6.1l0.5 10.8q0 0.2-0.1 0.3 0 0.1-0.1 0.1 0 0.1-0.2 0.1-0.1 0.1-0.3 0.1-0.2 0-0.3-0.1-0.1 0-0.2-0.1-0.1 0-0.1-0.1-0.1-0.1-0.1-0.2l-0.4-10.7q-0.1-1.6-0.3-2.7-0.2-1-0.5-1.8-0.4-0.7-0.8-1.1-0.5-0.4-1.1-0.4-0.8 0-1.5 1-0.8 1-1.6 2.8l0.6 12.9q0 0.1 0 0.2 0 0.1-0.1 0.2-0.1 0-0.2 0.1-0.1 0-0.3 0-0.2 0-0.4 0-0.1-0.1-0.2-0.1-0.1-0.1-0.1-0.2 0-0.1 0-0.2l-0.8-17.9q0-0.1 0-0.2 0-0.1 0.1-0.2 0.1-0.1 0.2-0.1 0.1 0 0.3 0 0.2 0 0.3 0 0.1 0 0.2 0.1 0.1 0.1 0.1 0.2 0 0.1 0.1 0.2l0.1 2.5q0.8-1.7 1.6-2.5 0.8-0.8 1.6-0.8 1 0 1.8 0.6 0.7 0.6 1.1 1.6 0.5 1 0.8 2.3 0.2 1.4 0.3 3.3zm13.8-1.4l0.5 12.1q0 0.2-0.1 0.3 0 0.1-0.2 0.2-0.1 0-0.3 0-0.2 0-0.3 0-0.1 0-0.2-0.1-0.1-0.2-0.1-0.4l-0.1-2q-0.6 1.4-1.4 2.1-0.8 0.7-1.7 0.7-0.8 0-1.5-0.3-0.6-0.4-1.1-1.1-0.5-0.7-0.8-1.6-0.2-1-0.3-2.2-0.1-1.5 0.2-2.6 0.3-1.1 1-1.8 0.6-0.8 1.5-1.2 0.8-0.3 2-0.3l1.6-0.1-0.1-1.5q0-1.1-0.2-2-0.2-0.9-0.5-1.5-0.3-0.6-0.8-0.9-0.5-0.3-1.2-0.3-0.7 0-1.3 0.3-0.5 0.3-0.9 0.7-0.4 0.3-0.6 0.6-0.3 0.3-0.4 0.3-0.1 0-0.1 0-0.1-0.1-0.1-0.2-0.1-0.1-0.1-0.2 0-0.2 0-0.5 0-0.4 0-0.6 0-0.3 0.1-0.5 0.2-0.3 0.5-0.6 0.4-0.3 0.8-0.6 0.5-0.3 1-0.5 0.5-0.2 1.1-0.2 1 0 1.8 0.4 0.7 0.5 1.2 1.3 0.5 0.8 0.7 2.1 0.3 1.2 0.4 2.7zm-1 7.9l-0.2-4.2h-1.9q-0.8 0-1.4 0.3-0.6 0.2-1 0.7-0.4 0.5-0.6 1.2-0.1 0.7-0.1 1.6 0.1 1.6 0.7 2.5 0.6 0.9 1.6 0.9 0.8 0 1.5-0.7 0.6-0.8 1.4-2.3zm15.2-22.5l1.2 26.6q0 0.1 0 0.2-0.1 0.1-0.1 0.2-0.1 0.1-0.2 0.1-0.1 0-0.3 0-0.2 0-0.3 0-0.1 0-0.2-0.1-0.1 0-0.1-0.1 0-0.1-0.1-0.3l-0.1-2.6q-0.7 1.6-1.5 2.5-0.9 0.9-1.9 0.9-1.1 0-1.9-0.8-0.9-0.7-1.4-2-0.5-1.3-0.9-3-0.3-1.7-0.3-3.7-0.1-2.2 0.1-4.1 0.2-1.8 0.7-3.1 0.5-1.3 1.2-2 0.8-0.7 1.9-0.7 0.9 0 1.7 0.7 0.8 0.7 1.6 2.1l-0.4-10.8q0-0.1 0-0.2 0-0.1 0.1-0.2 0.1 0 0.2-0.1 0.1 0 0.3 0 0.2 0 0.3 0 0.2 0.1 0.3 0.1 0 0.1 0.1 0.2 0 0.1 0 0.2zm-0.4 21.5l-0.3-7.8q-1-1.8-1.8-2.7-0.8-1-1.7-1-0.8 0-1.3 0.7-0.5 0.6-0.8 1.7-0.3 1.1-0.4 2.4-0.1 1.4-0.1 2.8 0.1 1.4 0.3 2.9 0.2 1.4 0.6 2.5 0.4 1 0.9 1.7 0.6 0.7 1.4 0.7 0.4 0 0.8-0.2 0.4-0.2 0.8-0.7 0.4-0.5 0.8-1.2 0.4-0.7 0.8-1.8zm16.9-4.2q0.1 2.2-0.1 4-0.2 1.8-0.8 3.1-0.6 1.3-1.5 2.1-0.9 0.7-2.1 0.8-1.2 0-2.2-0.7-0.9-0.6-1.6-1.9-0.6-1.2-1-3-0.4-1.7-0.5-4-0.1-2.1 0.2-3.9 0.2-1.8 0.8-3.1 0.5-1.3 1.4-2.1 1-0.7 2.2-0.7 1.2 0 2.1 0.6 1 0.7 1.6 1.9 0.7 1.2 1.1 3 0.3 1.7 0.4 3.9zm-1.4 0.3q0-1.6-0.3-2.9-0.2-1.4-0.6-2.5-0.5-1-1.2-1.7-0.7-0.6-1.7-0.6-0.9 0-1.5 0.6-0.7 0.6-1.1 1.6-0.3 1-0.5 2.4-0.1 1.4-0.1 3 0.1 1.6 0.3 3 0.3 1.4 0.7 2.4 0.5 1 1.2 1.7 0.6 0.6 1.6 0.6 1-0.1 1.6-0.6 0.6-0.6 1-1.6 0.4-1 0.6-2.4 0.1-1.4 0-3zm13.6 4q0 1.3-0.2 2.3-0.2 1-0.7 1.8-0.5 0.7-1.1 1.1-0.7 0.3-1.6 0.3-0.5 0.1-1-0.1-0.5-0.1-0.9-0.4-0.4-0.2-0.7-0.4-0.2-0.3-0.4-0.5-0.1-0.2-0.2-0.5 0-0.3-0.1-0.8 0-0.2 0.1-0.4 0-0.2 0-0.4 0-0.1 0.1-0.2 0 0 0.1 0 0.1-0.1 0.4 0.2 0.2 0.3 0.6 0.6 0.4 0.3 0.9 0.6 0.5 0.3 1.1 0.3 0.5 0 1-0.2 0.4-0.2 0.7-0.6 0.3-0.4 0.4-1 0.2-0.7 0.1-1.5 0-0.8-0.2-1.4-0.3-0.6-0.7-1-0.4-0.4-0.9-0.7-0.4-0.4-1-0.7-0.5-0.4-1-0.8-0.4-0.4-0.8-1-0.4-0.6-0.7-1.4-0.2-0.8-0.3-2 0-0.9 0.1-1.8 0.2-0.9 0.6-1.6 0.4-0.8 1-1.2 0.7-0.4 1.6-0.4 0.4 0 0.7 0.1 0.4 0.1 0.7 0.2 0.4 0.2 0.6 0.4 0.2 0.2 0.3 0.4 0.2 0.1 0.2 0.3 0.1 0.1 0.1 0.2 0 0.1 0 0.3 0.1 0.1 0.1 0.4 0 0.2 0 0.4 0 0.2-0.1 0.3 0 0.2-0.1 0.2 0 0.1-0.1 0.1-0.1 0-0.2-0.2-0.2-0.2-0.5-0.5-0.3-0.2-0.8-0.5-0.4-0.2-0.9-0.2-0.5 0-0.9 0.3-0.4 0.2-0.7 0.6-0.2 0.4-0.3 0.9-0.1 0.6-0.1 1.2 0 0.9 0.3 1.4 0.2 0.6 0.6 1.1 0.4 0.4 0.9 0.7 0.5 0.4 1 0.7 0.5 0.3 1 0.7 0.5 0.4 0.9 1 0.4 0.6 0.7 1.4 0.2 0.8 0.3 1.9z"/>
		</g>
		<path id="rect1" class="s2" d="m820.6 546.1h329.7v226.4h-329.7z"/>
	</g>
</svg>